<mxfile host="app.diagrams.net" modified="2020-12-11T15:10:59.046Z" agent="5.0 (Windows NT 10.0; Win64; x64) AppleWebKit/537.36 (KHTML, like Gecko) Chrome/87.0.4280.88 Safari/537.36" etag="OFLkYuZg14vqdGjs5MrV" version="14.0.0" type="github" pages="2">
  <diagram id="YUa-X6i2sD0ET6zvabWJ" name="Page-1">
    <mxGraphModel dx="1422" dy="772" grid="0" gridSize="10" guides="1" tooltips="1" connect="1" arrows="1" fold="1" page="1" pageScale="1" pageWidth="850" pageHeight="1100" math="0" shadow="0">
      <root>
        <mxCell id="0" />
        <mxCell id="1" parent="0" />
        <mxCell id="3MpuOHCQct3RwVD4o1ZD-26" value="" style="rounded=0;whiteSpace=wrap;html=1;dashed=1;" vertex="1" parent="1">
          <mxGeometry x="63" y="142" width="447" height="289" as="geometry" />
        </mxCell>
        <mxCell id="3MpuOHCQct3RwVD4o1ZD-8" style="edgeStyle=orthogonalEdgeStyle;rounded=0;orthogonalLoop=1;jettySize=auto;html=1;entryX=0;entryY=0.5;entryDx=0;entryDy=0;entryPerimeter=0;" edge="1" parent="1" source="3MpuOHCQct3RwVD4o1ZD-4" target="3MpuOHCQct3RwVD4o1ZD-5">
          <mxGeometry relative="1" as="geometry" />
        </mxCell>
        <mxCell id="3MpuOHCQct3RwVD4o1ZD-9" value="Spin up task &lt;br&gt;on demand" style="edgeLabel;html=1;align=center;verticalAlign=middle;resizable=0;points=[];" vertex="1" connectable="0" parent="3MpuOHCQct3RwVD4o1ZD-8">
          <mxGeometry x="-0.3425" y="1" relative="1" as="geometry">
            <mxPoint x="17" y="1" as="offset" />
          </mxGeometry>
        </mxCell>
        <mxCell id="3MpuOHCQct3RwVD4o1ZD-4" value="Job &lt;br&gt;Scheduler" style="verticalLabelPosition=bottom;html=1;verticalAlign=top;align=center;strokeColor=none;fillColor=#00BEF2;shape=mxgraph.azure.scheduler;pointerEvents=1;" vertex="1" parent="1">
          <mxGeometry x="109" y="257" width="40" height="50" as="geometry" />
        </mxCell>
        <mxCell id="3MpuOHCQct3RwVD4o1ZD-12" value="" style="rounded=0;orthogonalLoop=1;jettySize=auto;html=1;strokeColor=#FF3333;exitX=1;exitY=0.5;exitDx=0;exitDy=0;exitPerimeter=0;entryX=0;entryY=0.431;entryDx=0;entryDy=0;entryPerimeter=0;" edge="1" parent="1" source="3MpuOHCQct3RwVD4o1ZD-5" target="3MpuOHCQct3RwVD4o1ZD-11">
          <mxGeometry relative="1" as="geometry">
            <mxPoint x="363" y="282" as="sourcePoint" />
            <mxPoint x="700" y="223" as="targetPoint" />
          </mxGeometry>
        </mxCell>
        <mxCell id="3MpuOHCQct3RwVD4o1ZD-18" value="Notify users &lt;br&gt;of the problem" style="edgeLabel;html=1;align=center;verticalAlign=middle;resizable=0;points=[];" vertex="1" connectable="0" parent="3MpuOHCQct3RwVD4o1ZD-12">
          <mxGeometry x="-0.2852" y="-1" relative="1" as="geometry">
            <mxPoint x="15.810000000000002" y="-7.9" as="offset" />
          </mxGeometry>
        </mxCell>
        <mxCell id="3MpuOHCQct3RwVD4o1ZD-20" style="edgeStyle=none;rounded=0;orthogonalLoop=1;jettySize=auto;html=1;strokeColor=#000000;fillColor=#FF3333;entryX=0.5;entryY=0;entryDx=0;entryDy=0;entryPerimeter=0;" edge="1" parent="1" target="3MpuOHCQct3RwVD4o1ZD-19">
          <mxGeometry relative="1" as="geometry">
            <mxPoint x="327" y="321" as="sourcePoint" />
            <mxPoint x="492" y="363" as="targetPoint" />
          </mxGeometry>
        </mxCell>
        <mxCell id="3MpuOHCQct3RwVD4o1ZD-21" value="Send log &lt;br&gt;to disk" style="edgeLabel;html=1;align=center;verticalAlign=middle;resizable=0;points=[];" vertex="1" connectable="0" parent="3MpuOHCQct3RwVD4o1ZD-20">
          <mxGeometry x="-0.2807" relative="1" as="geometry">
            <mxPoint x="7.230000000000004" y="12.33" as="offset" />
          </mxGeometry>
        </mxCell>
        <mxCell id="3MpuOHCQct3RwVD4o1ZD-23" style="edgeStyle=none;rounded=0;orthogonalLoop=1;jettySize=auto;html=1;strokeColor=#000000;fillColor=#FF3333;entryX=0.5;entryY=0;entryDx=0;entryDy=0;entryPerimeter=0;" edge="1" parent="1" target="3MpuOHCQct3RwVD4o1ZD-22">
          <mxGeometry relative="1" as="geometry">
            <mxPoint x="497" y="464" as="targetPoint" />
            <mxPoint x="325" y="320" as="sourcePoint" />
          </mxGeometry>
        </mxCell>
        <mxCell id="3MpuOHCQct3RwVD4o1ZD-24" value="Create a &lt;br&gt;job log" style="edgeLabel;html=1;align=center;verticalAlign=middle;resizable=0;points=[];" vertex="1" connectable="0" parent="3MpuOHCQct3RwVD4o1ZD-23">
          <mxGeometry x="0.219" y="-2" relative="1" as="geometry">
            <mxPoint x="24.7" y="-29.23" as="offset" />
          </mxGeometry>
        </mxCell>
        <mxCell id="3MpuOHCQct3RwVD4o1ZD-5" value="Container" style="outlineConnect=0;dashed=0;verticalLabelPosition=bottom;verticalAlign=top;align=center;html=1;shape=mxgraph.aws3.ec2_compute_container;fillColor=#F58534;gradientColor=none;" vertex="1" parent="1">
          <mxGeometry x="295" y="264.75" width="60" height="34.5" as="geometry" />
        </mxCell>
        <mxCell id="3MpuOHCQct3RwVD4o1ZD-16" value="" style="edgeStyle=none;rounded=0;orthogonalLoop=1;jettySize=auto;html=1;strokeColor=#FF3333;fillColor=#FF3333;" edge="1" parent="1" source="3MpuOHCQct3RwVD4o1ZD-11" target="3MpuOHCQct3RwVD4o1ZD-15">
          <mxGeometry relative="1" as="geometry" />
        </mxCell>
        <mxCell id="3MpuOHCQct3RwVD4o1ZD-17" value="Send Alert " style="edgeLabel;html=1;align=center;verticalAlign=middle;resizable=0;points=[];" vertex="1" connectable="0" parent="3MpuOHCQct3RwVD4o1ZD-16">
          <mxGeometry x="-0.2334" y="-3" relative="1" as="geometry">
            <mxPoint x="13.99" y="-3.21" as="offset" />
          </mxGeometry>
        </mxCell>
        <mxCell id="3MpuOHCQct3RwVD4o1ZD-11" value="Amazon SNS" style="outlineConnect=0;fontColor=#232F3E;gradientColor=none;strokeColor=#ffffff;fillColor=#232F3E;dashed=0;verticalLabelPosition=middle;verticalAlign=bottom;align=center;html=1;whiteSpace=wrap;fontSize=10;fontStyle=1;spacing=3;shape=mxgraph.aws4.productIcon;prIcon=mxgraph.aws4.sns;" vertex="1" parent="1">
          <mxGeometry x="552" y="179" width="72" height="85.75" as="geometry" />
        </mxCell>
        <mxCell id="3MpuOHCQct3RwVD4o1ZD-15" value="xMatters" style="shape=image;verticalLabelPosition=bottom;labelBackgroundColor=#ffffff;verticalAlign=top;aspect=fixed;imageAspect=0;image=data:image/png,iVBORw0KGgoAAAANSUhEUgAAALIAAACjCAYAAAAuAERWAAAgAElEQVR4Aey993NdVbYtzH/z/fzVq69e3fsacFDOWbItOWBCQ9ME25JOjkpOYHDOsiUrnHyOJAcw3UCTacCkJoNzkG2lk+P4asy1jyQT+nYDt+rycFftlpHlo733GmuuOcccc857stksfv6VA3JAOgWkkurP/G9euSyQzmQRT8WRQgJpxBHO3sRU5jLCuIoYriOKq5jFRbnmcAGz+A5z+A5hfIcoLiKGy5iTrzfw3eSnSCOCeDaMWDqKNDLIIIfML7r/X/Ls/zf82wyALBJco3QGGa5lDuB3M0ghkrmFOG4ghksI4xvM4UtE8S0i+Baz+Eb7/neI4SLCOI8Z+btLmMFFzGQvIYkpzKUmEU1PI5mLISOrlkUmy3UDcjkgm839AvwtrME9Px/E/JAFIBPMAt4UkEymkU6nkcklkUEcaczh8yt/x37XZhwK9uE5lxHbR9qxdeRpbBl9Cts8G/GMdyO28c8jT+HZ0Y143tWJnaNG7ByyoGvXBvR7dyKFOdyO3EAiGxcQp3N3gfzL1i+L/P9of2LJFOZiMURSUZz7/F08c8CJfSPd2Ou2YKerHZsHHsUzrieww/MUNp94DNtHn8Sz7g2yZj3H/oTtI5uwy2vGrlErTr49iAiuYC53FXFMIZabRSwdQSqbAmGTzQLZzP8kIHP3pmVjK+ucziCZjHOfI4sI0pjCZOILnDj9LHqPPg5H/3ps9f4RxqON6PWuhXVkFRzu1XC6V8M+3ArH0Gp0Dz+AvqFH0HvsUVh2rUfn5nU4990r8kJSiGEmOgMuwVw4+qvt6F8KiN/mv88hGU8hleTZRtusrHEaKVyZ+RbDJ/ei58AT2Hz8UWx3PQLHwArYB5vR7VoFy0AjHCOr0OVaDefwalgHWtE1tB7O4w+h47lV2D7Yjtc+CyCCy0jiNtIII5qeRTKbUL+LIE7/jwGysso5zTITyZlMEjnwZiPI4DaiuADfy7vhOLgefcMPosfVCrurHjZPFWz+alh81bAHG2APNsLqbYDD24xeXxt6RtfA3r8auudXwv3KTsTphmSvgkCOZeJIpLWX/ysdTb9NIC4crT/v/tWJmssAmQyQzGQRScYQzsxiOnsFF6PnsHXgSTiOtmGbby16fU2wuarg8NXA4q5Ez1gTOgdLYfM0wOldgR7fGmwL/BF9I4+gq/+P2Hp8I76aekvckxRmkMAcUrm4+J7ZdA7ppMLPz7v3O5/9F7oWdHS0C1lkMwmkMxEBcZb+UfZbvPbJKPqOPAJH/yr0uldi60QL9CNL0X26FDrfvdD5l8EYLIYhUAK9pxgWbwWcvnqYB2uxcU8FdnifwNeRVxHXdnY0N4M0spiLxBeOqLt+8s/0M3NiFdNJdczTKmd4juamEcY1RHEeJz/cg+6hVtiGCeAKmD0FMPmWw+BdCvt4GWxjFbAFq2BwlaNjoBT6gVo4htrgHFgPy74HMHB6O7669Q5SmEISs0gSH7ks/huArPkr9FnusG4ZZLM/di3shHlLTJ8nk0I8MYtI8hYSuInpzDf4euo1dB16BD0nHkDX6Er0hVpgHC2EY7wE1ollMI0vgXG8EOaJUpjGSmAMFMMeqkJPqBGWE/XYsLMKH98+JYHfVOYiIrkpJMTnzsoxKMfhHfe8cG+/xi7/v/8zFJDzfkUymZIQmoF5HLcRwUVE8SUOnOqE+VgtnN5aOEPlcEwUwxi4D9aJAljGSqD3FsMSqIRzrBFWdz2sw03oc6/Fds8f8ee+Cpz9sB9z+BoxXEM8PYVMJoVsCsgkAZ4GuR81RHnspZHN0a9OIZtNa5hkgJjHrQoW7xGHm/5K/hJg8EMWfcAPPkgdCbwJQVSWAV4SWSQRxzQiuCbsw+bRp+EYeRA2dxss3kaY/TUwBcphCpbAFCwSS2wMVcI2UQ/7RC2MnlLYfdXo8jThyR1lcL/2nHxWHBHw09NZSLTLiDcj95TUHuwugH/epsvJuguYCKhMTgMVAa2CdK7lpcg5bBt8Cs7BNTAOVsHqK4MluAwG/30wB0ph9lfCLG5iLWzeOtg9dXC6a9HtqsV2bwv0u0tx7sowYvgcc8mLSPMIyADpKADGV5mM+t38/fP3QPwlkc3FkEVUXbm4BubFeCWgs7hHHO48iPk1D+Q8UOTDFu8IBWLuCHkBCS1CAJBABLeFXrsM97u7YR58AFb3api8zTD662AIVMEYrIAxWA5ToAymQAX0vkrovVXQuUph89dg68QqGI7UYP+EHpPZfyDG4wg5BWIGB/l7lfvKP9hdIP8SIPOdilEi/yZWgpaCxiyFNKKI4iZe/TQA45612OJbD4urEtZAISyh5RqQq8RIWXw1sPpqYPNWweEtQ5e3FM6RImx112LH6GpcS76CNGnXxCwyxE1qAcjk/hZvKPEGciQMCOKwunIM7mmZF+FALDOBnAdG/utPAVk+gA9H0KgPUg+vgJzjr8xNI4ZJvHP5NMxH1sN8YjWsnpUw+RpgDFTDGKiEMVAhADYFKuWr/WQd9N5S2EMMIKphG2kSl+KtCz51FGFuwRrP3yO03ZrQduhdIP9yIC8GsTr6eCons1FFe+a+wS6vEc4Ta2AdqYPVVwpLoEgDcjnM/ipYtODd5quE3VcGp7cUjtFibPXUoXNnEQKvb0GSnHPqJhIM9NL5DUSLrBnG+TXOai4FLXJEXbTO4l78V0DW0K12g2aFf+BWaP6J9gvzzmo4Po0kZjCD88IRm462wSEuRQNMfoI4b4kJ5Er5Hr/qPAUwB0rgDNXCMlqHx54pwolXt2AO58VPS4AvMqMs8vxD8h4010f8+LtA/tlAnjdKPwbkDBJpvv8wYriBj26che3IWnSNroLdWwNboByWQIkCc4BgroTFXwmrvwI2X5lY5V5/FawDJdjuboV9/0q8+bkXKdxCLBtBPKVcQ/rIeSDPG1bBYgZZuhP/kmshFpjAUE6zCvAW+cdiifNONgFzJ5AzPBKQxUxiUoK88bePwLh/NWxDfNgmWPxVyo0IlsIUVO4EgW3218qDbxz6D/SeroBppBTG4/UwHlyLSXyBKG4hilkkkFBAluRH3vXJ3+tdAP88AOff28Ja0jddcCskCFH+suTjuArTiOIyXK8/i56R9ehyr0DPWKMAmfGOxD2BUomBzP5yWP1lsPnK0eWvhG24HDuCa9HV34otxx7HtcTHwi3HhIHiqcr7WWRl5w0WrbLmJ9Ma/1Mf+QfMBEG7GMiLQXwnkMWdQgbTsVtijT+69Ap6jj6Obd5H4XA1w+QuF2trChZCXSXiTjDoM/vqhUO2+JfCGSyEbbQKf362FK9840UYNzGHWURyMSSRRjrH9CkzhYvv5c6o9ZctaH5hf49fCWb6p8qdWACzCrwoAWBqOYmIuI3X8BF2+DaKi9HtWwGLvwymUIEE76ZgMUw0WIEymANlsBLQ3nI4PDWwDdViR+Bh2A62Yfiv2xDDBYRxRT43zbXVfv28RZ4HM7GYUCDm1590LfKuw/e/yj/QQH3H8a3tYtm0fMQEwjnm5CdxeLxPMnfbQw/B4auF2VcMc3A5TKGlMIWWycOaeQQxKPA2wuatgd2/DLqB/4BloArPeJ6Qh7uZmRSegrFAipZYgMydyQeis59ZCPrmT5LfIwh/jWdeALICs8qOCHuQAVLpLBKZlOhlprLXEMFVnPl4AJuHH4djpBUWf4UGZBorApnGiidvGWiZzZ5yWNxVMJ2oQrdrJbZ6HoT1UCveveLBND5HAlNI0VzlFrFSi/zlXDaDnKS1uf7a2mtaDYI/70nco0w3f0j7wTygfwDkfKCnHpwfwFTmbHoScdzEmfeHsZkUzQmmnethGC2C42QpTKElMI3dr8AcLJSHs/hqYfM0w+6ph9NbBKerCO27S/DZ7FnM4oYQP8z/kJlRlBuPmPyu1Ci3+R3Lh/k1FvT3+BnKKCn/VFllAc48Haa8DWb84rkEkogJgzGFb7EvaEfP8EOwems0a0z3QgOyZpVJtRo8ZTB7qmD11MF0ogbOkRXCMRPQt/C++N4JqJM3RdESDSSBzEBQgkFSghqYBZOZedHRPwfyvE+srDGJ4lyO+gnyJUxBpxGLkQDMIZqaQQQ3EMElbB/uhPFAG7aPPYyOY0XoOV0DY3AJ9ME/wDyxRP5sChRKFsjhb4Dd3QzrcB16PJVo33MfRl93YBIfI0anIp3EXCIPYrXrcrkEcrk4ctmkPNj8EXTXIv+CjXwn5UWL/H0gp9Lk7IEY151ZgswkYriJr6ffgfXgethcjdj8QhPaR5ZB7ymEbaIC7a6lMAZKYAlVQO8tgyVAWq4WppFqOD1NMA1UwznaiDOf70aMwqLsbbHK0TTpNqWKY7KE/6E2mXZfWbogCsgEvDJy3Iyk337UEtP6qosgzmc9EokYUmnaSkaTKcSyU3Ij4x8chr3/IWz2/RHd/lXoOFEI23gp9IH7YRxTl0k4x2KY3GUwj1TB7mpGj3sVuk/U4xnXWnx4PYg4rmAmM4U44w66FakFmo/HS46CEwFy+q5r8aucQt8HMi1fWgOzYhIoCCNgYikKO7OIidM3i6nMeQTf2g/jsUZYPDUwe6tg9JbB6CuG3lcoWVqDvxgGH79XCaOnCobRCnQFm2Bz18B4ohQ7Tz6Gi8n3xL1QYE4hmkyKv8xsYyoPBOGYeW8EcVakpj8N5HlLnHcheNQSTgu6qEh0BulMDGBoN3sDaUzjSuZ9WI+uhfl4K7ZNPAKTq1YeqN11P4yhZTCOL4M+sASWsWJYg2UwjpbAMlKFLncLtnjXwbS3AWNvP4cwvkICk7gdm0SSwQcfJJE/XpjGVMeLAnTeV/o9ugO/5jP/FJDTEvyJNdSO+mic+m+6e/Row7L2VxMfoWfkYWw6Wonu4ErYA3XQuYrgmKgUN8PgL4TRXwqjvwJGXxX07gr5ma5QHXRDBeg8Uo6T5w5JvuBm8rwEfnOJOaWNplsxnzBRjAppOmqZ8yD+nkUmKPJswGIQqxdGINMSK481hRziSKSmMTN3FWlMwvfWDhiONIryyTzaAN1IORwn6/Dk0P+B5WQpDKECdPqWwjJWCit5R3cFuv2N6HY3o2uwFX1H/4Svb72BJK5jKnkJscwsGCfHokzEKyCrNCYPAh4xtBjkuBc7/7/m4v6ePuvHgMyTj5eWNtY0YfF4TkRaZBiiScpow7Jmnrefh+5oC7q8q9EVaJETt+dMLUyBAljHSbkSyOWwhGpU7sBbCVugWug5/fEy0TVfy3yM27lvxDInEQV/RzxGJVM+UPohkOf9ac21vEe5EPnFWwjkVDRIa5xDIhlFMhWRJHQ6O4tE6haAML6dfAfdgw/A4W6WHdkxVAa9pwK2k7XY5C6AaaICumAxOn1FMAfLYfSUwe6rRV+wBeaBShj21eOF90YQw5SI76eiV5GDsvjxWEQdBoz48jtT8vIEM0G8mFfM3//dr/9e4PvPgEzjlpXqHxoUFk6Q66WPGk+GkcpSOnALX4bfwlbvBlgG2mB3t8DqrUTXOH3jJXCeKoNlrAwGHym5KlhDdTB6K2HylsMeqhRNhn5/E174iKKib+VEpkKOUk8WZogzIBH/94DM01q7aKGVjyy+lopehZQWSkPdNMHM4I78RCI5x/AOscQkgFkAM/C+sBu2Yy0wu6pgdFWIU880tI7c4kQ1OgNl0AXLoadQiN8fKYXDR0FJHToOLkfPwDrcTF0CfwPLoRLZOWRys8hhDkAcOb69PJCFi9PS4QSy5N8jGiVzF8D/HoC190XfU4DCoIqgzrtvZIZ4UhPIZA0WJSuIl1wSuVwU8dxNEXX53zsE2/H1MB1vhN1bDYu3EHrPfXCcLBF1nM5ThE53KayhesGI3l0KoWFdVbAPtGL78JO4EH8bCVzFXPoaYiniK4dUPKlRVxqQM5prkQNYWUcwLwKyBuI8nZX/qnF06XQ+VR1DPHkb8eRNAfGFy+fw7OFN6B5dCaOrFAZ3CWzjNQLadm8pjBM12OgthS5QCUOgGiZ/DfR09v0NMA2WwXSsBCc/eh6kXlJUz2WoMqbbchOpNH9HBOlEeAHIjGIJZlIzAmS6ILPKxfhVAp/f32aQOF4DsnqvBDJZIY2OlRhJWWPFHgDpJN0OLgYzrtTW3MIXkXewM6STqh+HpxYm93LYQwWwhqiQWy5+coerBEZfNSyBWujdZTBRQeeuEirOenA1gm/vQQTnEcV1xNLTstDJGKkrrZAwzeCTa5STb/0EkJVLoXbl4uNGUSHxeExsZjwzjRR1qtmLOPlKP3oOPgLbcL1oiB1jNdB5StHhKYMuUIV2b7lcnXT06RMF6oRL7Au2wni0CpvdbbiSfQtTsWklkOcOy5ARoZWdYQWZQu5iiyy8IoHM+DmviFKW42dZpN/5BpC09GKLPB9Q5y0ywzsgmcggQ9ciDcQiUaSSam0YL82JbnkSI6/uhPVoG7rcTbB6SrDlxSpYgkvR7qJuuRI6bzl07goYPJXQucpgD1Wjd7wJjtEm9AyvQVf/g7iUfBdJUOowg2h8bpFrQV9ZWWU5JXK5n3ItVBCl1M5UPJNz0RztHBCNUbaTw1SSyY9JfD71Kqz716F7aLWkH5mKFE2FvxZGfz0MAV6UbVaj01sC61g17IFamIdqsNW3Hk9sq8Rr347iNr4Rl2KB2Fa0nhxdEnAwer5zYynfPf9zd9mLX7qB88Zr4XMWqNeF7ylDp949rSItt5IMRLPUYURxfu5DbB74MxwnWuD0VsPqK4R9nEkS6s5LYaSEl9IEf41IE6y+SthYceIqw7aJNugO1uLUxwdEzzGTua6quCPRBRwSj2KRKVegvJTZwJT47LxPrdRJ+UbIJiBCUW4/MelqF6YyQCybwkyOVQNXEPpgP8xHV8LpaobdS6F1BahFNfnqYfQ3wuBvECCrmy+VfLzVUyW7r3NvA7YNb8TnUsvFIC8vGvn9He0LQPltPjv9U/qpdDKmMpfge203bP0rsDnYAgvL1gIqba2ATAkvxWKqTlMBuRyOULkAutuzEts8f8IkPsNU7rLgIpFMSkJk3qjSqJFhk+r8BDLz2gsBMnfbYotM9T4tMn0THivUtgEziVnEMYtL6Y+weeQJ2AZb4fQ0w0bn3lepgOyv0yyyssYi3fSXwOAuEjE2c+1/2lyOFz4exBQuUqUhO+u3vqC/1/snkJn1m02EhTr7cuZv6B1ajz7fSlhcpTB7i2AKlMDI/IEm3RUgU9rpq4DNXwZHqAwmVzE2h9qwcXctXvvWjyhuYDZ1S2jYxX48/ywsGy0xwTyvvRAgaylgkR9RMMKcpMpL8h+m0jlxK2YzdOxv48VPR6DbtxLO0TY4PE0i/GEltFhkuhaBGnEpDFIJQjquAEZ3Mayj1bANtMByYB0uxD8Qyi0qQL7r4/5WNwKBzKREOBlTfi0uYujVbliO10u1tcWrVHBS3iZAZiUJNcsVShnnL4XJuxwOlru562E+tgK7/EY59W/FryDDkopFWmUFZOXaEMSL1ZDzFSLi+AuYhSyUBLv4T6yJTofFGkdxDc+6OmE+2oou90oR/Vi9tQJiBWRVBWIIlsMQ5E4shsFboHyhoRp07KvHib9QwnddyqLmUmGRaP5WF/L3ft+ES0JjSCNswoKrODc5DuOhRjhcjXAG6kRobw5UwOxfuCwSUzFBVgyTrwDOsSpYXTXo8ayFfk8rPrz6kug5GEoyOUJamCAWIItVVmBeSOTRImt0G39IcpAisGaARZeDxeFpMfNx3MInk6+iY9dK9LofgN3VAKuHcsw6WHx1Is00+VmTVwZDqATGkNIgWwLFcJJy6a+G5VAbPrj6ojRaSSKFaJq76rfpH/7eQcznJ5BJ9RI6c2kWHV8XaebusXZ0jbaiJ7hCavhYNUIrLLJO0SqzTIo+NBWSrCwpkR4Z5sEGWI604eC4E3FpqUYxUUK1RbsDyPQi8mBW+LkDyHkwC/p5ozTfiItLMYsLGDi7Fbr9LZKONo1Wweyhb1wvInnyxCwmNdIShwpEZ2EKLofVXwKHtxYd+6tw5AU7psFeYazDyyFJT0b46rtg/m1uDCXsStIyCxU3iSgu4c2LXlVF4mmFzVMPK11Pf4UE/VJ1HSiGmfV+wSLYT1JUVAQns36D1eh1PQDbofW4FH9fOGUK+vNWOW90+VW8hUX06T35EhMBr4Z6/pnWOMPby7Gxxk3cyH0C68EH0D26DtbRBuhH6N9UCIjNPtblqVJ/Y6hIgTi0VET1RlchLMM1aN9Tg5c/HxLtMhVUIkCRlkn53XUXzL89MCvtcDhKg5dFODcl4JvF1+gdekxaaVG+YPPWgiwFq0lUjd8CkI2BQljHKtA5UoSeYAt6PKth71+DVz4fQRRXkGDKGkoR90+BnHeLFcoX1GYKyDFROSVIub2zD+ZDq2AfWQGHvxHtQwWwhWpgCzbB5K0XdZN1rBLWCfrGS6H33ycdabqDtbAM1MN6eA1u4TPlVuSSItGUDTPv89wF8m8RyJSp5/WRs6lp6Wsygwvwv7MXlqNr4BxthdXFZFgVHKEqATLjJjNdi1AJTKEy6H3FsI1VweSuQG9gFazHVmKHa4Nk+tgoJpxihyLq4jUxZv4rq0U1q3wPfVQ53hf5ysoip6XxXIJUCL7EvqAOPcNrYR6qFe2p3kvhNG+scR7IlrFyWMZJgC+FKbAMtgBLwuvx9K4yeN9ksxXqKsJIpBJIKVmzcuAXHRH5G7v79bewsRU9Sy1GMp0F0xSkVMO4jveuvADb4QfRPbJWJLt0L1mMavYXw+RnGwFV38ceJzpfKWzj1TD7KGFohGWgAT2DD+HjybNgbMaES5IY0QCsvAee6XxHSrF5jyrq5H8sFoaoTj5pqWK+gs9unoVxXwu2hx6EcahCdBVMO5KdMAcapG8F1U0EsnmMouplsAZLQN2pbaQZT+2oxrfRt4StyCCKDPUbCcVTq03zW1i0u/f4Q+OSQyrBZBoQT7BjNRDJkuGawTQu4DmXHo7ja9HraRPprpliIV8JrCFKO4sVvxyqQqevHLaJWmm7ZWfCZLgWlqMtGH5FMVyUdrJBMRNzNP/sGyeCMhLD80BmVCjEsmqfJH4IGThNFJLEZYy/sxvtu6qxNbRGujDqPUWwnqqELlAmHYQIZnOwCmaS2xpbYQuyGqAZ+qON2DryFMJs/py5KjUG8uSMEHhjwo7cBckPQfJbeCc5ZFKq0Uo6rRJnYUp+pSjqFk6+dxyWQ2vQPdKGvkALzBQLUbIQorSTbkUlTOP16GSCZFzFWBZfmVSQmPsb0DvwKCZzX4qVl3bxVJfRKosLoeSQkuljilospKSJF6wyf46N7Kg3pVvxvOtpdA2uhMNVD0eoFnqWsIxRokkg18IcqIcpSOqNQmrV48AaqIbdswJPPFeN05+w6fN1zKRuSFm3+BP5YjDJn/8WFu3uPX5/s7Fig6DK0lRSWpnKIpZixXUKEdzCheg5dPU/AtvASvT6V0grLaOnBBa6E1RIBmtgHm+GjhnhELUYpTD5FF1rG26Ccf8qnLv6F0TB5j9pxIgZ/o/VqZRTkPuSohABcpj1GHdYZcnYSGXrTXx+4y+w7mvFjtBD0A+UoGuiTgDb7i9CJxMfAVYD8Huk3lg1XSIiepOnGvrBRjy9swXfxt/HnKiawiL/ExFsMq5lEJWP8/2XdPe//+dvHB7rLJ7MaSL4OJuGszkhsriVvCYlTEdOO2E/zgRaM7qIEw9F9uz5R7zUwRBqgS7QCKok2VqY/rMjUIkubwuMB1cg8NZhTOEamHeIp5XYPyPYiSKXjiwG8iwypMMkd60CPwaAbF5HSd3YG/th3b8SzwTWwTBYAluwEsZQGToCJegIlMEQqJG0tF7+XALzWJkEgfqRGjx9sBbPhUy4jQuYwy2x8txFSEQASjZTUQHzXdD+zwftj62RlEPJzA22p9UE+DkgkowjLH0Ar+ON7zzoG14P21A9uoMNMLqJj2qYgpQy1KHD1wh9sBnt3jIYgqUwh4ph8ZXA6W2A9Vgrtg3pcCX2NZJIIkHNOmnhVAzIhJFJzihJr6jfkLfILLVWomWygknMSYX0bk8nnMdWottVD/NoCYxeJcvThyrQ7mP1R62A2SBAJo1SAXuwFrrBajy5qwanPx3GNK4hnGMJCwXZGeTiESAbAxJzoND1x17Sv/Y9NVRFXCZhPvig+Zozfl1URHlHZkjLWkoeX8lEF0sUFzotUZiiVFaMGXgxLleXJiOUDkiUFrLCd+F0kX5mIsaiICsPVP699rP5f6cVVEpHH/k59TMqGl/8Z34G75u8u3YtYprmOVb5O+355Hcwe7pwUfp4xyVcg9It8Bn43uXeSXfJpQIqFVRp96/dM39WtMm5LJKssdNYhanZOXlHc7iGq+lzMneEPm+3rwlGVzls47WwUL/uq8ImdzUMwSa0uytgDlULp6x3FcDqqYR1qBEbnmvElzPviKQhnuV6sKE8/WNWEIUXgMyDIDw3o6JBRSRgNh0RPvCjGy+hd+gBdLs4EoFtXwuUNC9AfWm16I47PNVyQ4ZAKWyk38gJeqpgOlYHy4E12lSmWST5kiS4y/s47I0Rm7+Rfw24eUCor+LL8ygTV001ccnlWOsXBrK0+gkpYExHs0jHAOlkII0TID16sxRHMR6I55CIEfiqjCeZmpOaNJZcZTHDpmDScZ1V4xwhwGaNHMyTklMrLsN5OBuDg16SqSSSCcph1VgD+TpfRkQNr9LSMvUq3qQmEudgn3xrMLUZVaWGbPxsWlVmcDPyYymdTAA8YekqJsNAbI7l89qErRSbPrJQmAUIHBzEKVjqUvccFUqLfaeZZZ3LTktTQZnvwQ/nvfM98SvdBgKHIzWk6JctzLIi3+Q9sy2EFKvyGVn4oLX+ZTaOxpBJjZG/PAPzoZWwDjXB5CJYq6ELlsAwpkrg2AfQ5GtU7Bc1y4FyWANFsPtKoTtajuHX+zCH6wjLZChIJ0++l6Z6HKQAACAASURBVGya+FHuxj25FLuH85ts1SrKTY4tkY4yvrf3SMTp9FTB7l8Oa3AJLEHVE9ckIvpG6HyUbLIZSxns4+zCWIouTy0MB2qw29sJCo3IA6a5CHmxviwyqwx+JSBLqpsgjKt6v9wskA0LkLNxLoQcBPI1GWOkndHaGqRkDAALHZPpONLsvysn1DTSuIk0rmE29zWms19gBl8hggvChYdlXNcVEbbEwCTAHCKZGcwlppGWIIRmMYe56Vn1Qvm8WgU4tbS06CkJpnlgZrX6sx8HciRMI6OCKVo8VjPHCVhu4DQwO602o4A7lUI4zkwYhxDNIpy9gluJr3Bx5hw+ufQq3v36Bbx//q/46vZ7uI3z0suNvY8jMuuFIy0SCEdnlWUlkMXhpaSXggpWNavKdW44VfxJGSdP1JRKGWtA5jrzdOe8lwRu4ZVP3bAeXAvn6GroOcLhZB3afQUwhJjhK4XFVwWLtwlmb4to2ulDs5G4LbAMpuEi7Bh7DLfxHWZ4qjPE4/+BJyn7nKhT5J5kNCY3nkpkwaCQWGNjJJLaOzyd6B5thcNT+RNAboCRfk+wFqZQBZwnq2H3laPH24COXZU49f5BSVmyLu8HQM4yI8LOQb/EtVABrHItWDXCbkS0yJrrolncfK2frAV11pJQjSKDOYTTN6XTJGfCcdNdi32KDy68gOBre7HPa8JzI5uw+djjcB56CM7Dj2Dr0NPYP2GH5609Imm9Ev+H6Gfl3+du4nb4KsKxKW3nKE0AN9KCNiBvlemiMIQhKAhialt40qjjW/xPHmG02MkEUskkEokkItGE4Is4Y9EuNeLh3HWp3EniGi7OvYfT7xzFAZ8Jzw0/jb7+h9F1eB3sB9tgPdAK26G16D7+CLa5nsRzXh3+8g83Pp18E1GtxIiB/8zcLSTiUWX6uVvoB8vL41rx/jOqV5vcs/qe7LU8kDUNjdqsU7gQeQ+9A4+ha3Qt9MPVsE/Uod27/EeA3AyTv16CQQXk5bB7KqA/VI+vo3/HrJyETL7wlrQT4vtA5juLJ9Ng6QqPnPOxj9A7+LjM/nCwF8G8RWZ6sQzKIhPE9UKjGPzlcIxVw+apQLerEfo99fjs1llZZJn7sdgiyxSoXwPIi31kApnVvTxvyYjw5dMyiiGRKi5aNLKdPGpjGbb6uizTomhpv5x9Hf639qH32OPoeL5FGu1xBoZjoA2OwTZ0j6zBZu+D6PM+DMfwOpiOt8F8dB2eGW6H79V9+OrWW9LngUNfYtnbCMenxMorf1MzqlLhQLBqVQ60zrl8t1EG2vw7pTwk8PPuSTKeAIuA2cA3mUkiniarmkI4extxXMIsPsXr3wxjp28DHEfasHWUE7Ra0bG3BN0jjegaaZA16XY3SZbN6WqRRJV9uA3GQ2tw6HQvAm8dwfnIRzLkkcH/9NwNVes2r0+n5VdxB5No6r7VpuTzqGzbgsSBr57uE1PMbEe7b8wMy/FWWN1NoEpS5y+CIcgMX5lmkRth9vHv6jQgL4c1UACnrwob95Tj7D9GZXoBB0KQTpb3IW6FZpF5BGYIcRJj6RSiLPPGLF761AvHsYfgdK2A3VsBW6BAiglZvsJfbvbViU+j9zPYq5YeXxSGWEcrYRuow9ahR3ATH8nxxckitMjzHcoZreTIA/JoUD7Oz/GR+W94hPFSlkzz1/iLJFBRfqMCMBBNxDGbuC0uQQq0YufxyfQZDL3ZB0v/augPN2Oz/yHsOPVHWfCOoyWwumpBpZ9ptBJmN2Wr9TB76mHxN6HL3wbb8TbYD63Fs8MbcOrdI7ga+1gaWTMVPxu9LeJvscZilRcss3puVaG+IBBXgSdBkS/vSUT5jmh/OQAojdn4bbCvMJtvU+p47lYQh/66CeZjdehyNUviwXSiFLbRMuz8yyrYfSWwB3iVwk73L8gpTJWwBChur4fTswab9jXBeHAd9obs+HLqbbHuHPIZjt9WxkHeZz6Llr9nBl4LTXLmn1ErEFauRRIR6dR6DRPvH4buQAu6A2vQMVwKyzjptkVA9jXATD+Z/jL1y8FCGe9Aw2g51oi9IZtUbEdydJtUT262c1PrnsU9tFipOEHFHUSdUUxkmwfGe6E/sFKarzBHzt1Bcy/yO2kNq4Dc6a0SIOuYtXFXwDZSC92BKrhf2yzjXpkrT+ZoURZ2q1JK30lo/2wgS8tZPpCiZuRIluBKpdxZqkVngpTQzQgb8DF3fw2TmY9x9tOjcAythXGwEZaRJnQFVsHmo7KPHSTL0XemEfbxSphDpIVKYR1nCr4cen8JOrzF0mxkc3AVekZWwXqkBVtOPIqJdw/ievJTaWQdyXBQIvW0C6MF8tlMOS3YM0RcKx7PWmefRSCWUrM4HUJa4hhuhxlvUI14GzO5i3jr2yCcQ21SXWEarkTnYBHMnjL0nqqFc6wc7cN/gNHPhoLLYA4VStsyM6dnBYuhDxZLUmLzC2tgHmmGaWAlujik8/iT+PuFM9K0PZxhnBBXm1HYDL5n1eUpk+P3F9r8zgNZ27A8WdheK5qdEsXjR5N/gfnIOnT71kE3UgHbeBWMgSKIyF4qjKhpr18E5CKlWXaVS4rbdojdO79BVNwLnk4UEamgn9gRIHOlUymhnCXSvJb+ApsHn4bxcAsc7gZpo28JFIgsk2IPUfuLRa5HJ6WcY+z3VgnjSKUUpG7aWYkPrrIpIevyGAAlpXpKoloulFhkUnEsZfklFllV1ErAMd8EfCHVLgkgzZekBoCSQI7I+ib8BkZe3oqnnq2E07sK9kATusab4RxrUH3rRpZC71mutLLBZej03Y/OwBIYxpbDMFYAXXA5dGyRywKC0UJ0+1jd0ATb8Wb0DDyM0Zefw9dTf0dSMlK0IKz2VU0B85ZWlbfzmOIpQn9PAXnh77XgWGxxGnOJW3KSkNu/lvgEnpf3wHLgAXR51qBzqAq64UoZvGkL1aJztAjtI8slDWw/VQXLOGlSbr4itHvY+akM+mAVTGM12DRaJGv37EsPwe5qxaa9jdjh7sRnN9/QNs3C/Stjoxpvs0FLTmZ6LMQ4i8HMJVbMRVQM4018hWc87bCeaIXdTxeCzBeBzMJlVSon7IW/WllkdvP0l8DKFmuelTAfXI13L5wSV0WMgzTSXJAA35Oco08JhCMzSOTmpE0sK0F6Bh6DY6RN2hpZ/aUwBwlkNe9jAch10LGIcKJOFHGm4Wr0uNuwcUcNrqXfk+6aKcwiw1282CILh6Q6rvxyICuuNytA5g5dCACFlhMhSwSqFOcGPrxxFttHn4L54Cps9T8o4yGsTLOzYyRboAYpYKmQDjkG/zJYJpS+Wh9aCuM4gbwcnYGl6PQvg4EMjm8pTK4lcPorsTm4Eub+ZlgOrkPo7cMs1RUaU/Uz44JrtBA9ORpa6dWwAGRFdym3Ik9jpTKspJlDOMt+D5O4FPsAh8e70PncSmwefQSGE41whlbCObYCutEqGDxV6DrVjO7TzdCzl4S3TF2+Cuj9PD3pCpJpYsuGGmlrZj9TDZ2nRE6jXv86mA6vxsGJHhH+0M1MkjsX60cXLg3V4peDHzll6U5DlAczYy6VWGM72lnB1dEXt6DzUDO2nloH3Shd1GINyGqQDgtT6T+La0Hf2V8uaW22H3YOrEHgrT3iTpGViaXzA0N5T7TIxBMV/kmK3cOYzp3Hqff7xa3o8a0WdT+H1dBn4fgENVetSitvqoWeHWPIC46UoS/YhieeLcHBcSNmte6a5C/VsbngWsjOlkwiLbJy1tVuXzgq/rX/VtZBwopEDGltrC/Zl0hMqbE4+pDSwjlcxYc3XkLficdhONQC58gqbB1fKz4vG4+z5lBoIK2SweJnOQ4HvVBu+MOLlTDSsyFwL8z+e2Fj4DJail5fKxyDa+DsfxRnzg2pcQXh85JMoS/M0y8To+4RSIWZRBDCFklyalpCgUIcNZslJ65eJHdbQHwz9xl2+0ww7WtF7/B69HnXweZeIdQV5xhavA1SscPSs/xlZl9iBlBkA1gAIXxtE4y+ZgXoiTLoxgrQ4VsOExmnsZUw9Dei58Sf8PZ3tIDkzhMy2pe3xz7Z0mkoF0E2ExYgL8QoPFV48qhTUXh+9oPKzCCKKbzwyShsA+vReawKvScbYPYXSTW1lfSbzOrjpC910Vjye8ZR9r1YLe7q0RcsmMU3wuPHMoq9Ub87D2ShSxgPsnH3BQy81Af7YBuc3hb5MLWQBDKdc9WMRb0oVk2T1C6H0VWJXv8abHiuGqG39yCMC6IlZTaME1LzUS13KkGqsk2/HMgEMVvdckNw8WNxZvoVdRxOk0acknG0n9x+Gfb+h2EbXA3byApsObkGG48VSc0h6w5ZRMsZcXypErQycJWXyef94SWnUqAEtgn6n/fCGloOg6tA9LRd7lYJbJ7z6vH13LtaVcy05EslGMnz6TQiRIeMP04jm84gnVLcNmvXw8kZkUSSi72a/gRbBzega+AhdI1wLvRqmIbY+b9BNuPCM+SfQ828U5uUG5Xg5tyWegE8AysKvtoDhegYWw4d799fBHuQvYtrpcD4+NltuI2LiNEQJDgijC4ojxL6h1TUsyeJarytDNL3eitzv2ZziOaYSZjFhzdeQ9eJR2EbaYGDTQ39PAUq5J1LTZ9gSU39yve/YDkdu7daB2qwzfUQrqTfFeMg5KVG8xFPyiKnssJIxqX7/LfYOvw4NvvWyRRLLiKBbJSOMbRQ3Cn0afhiaiT67HQXwuKpRZdnNTp2NePclTNS0h3PTKnMz6IAhruVwY+kSek7amnRf80Cf99iqzNa9WxWVBxnVPPlEc4q3z+Jc9fPYrv7SRiPNkM/UINuHsMuzrioFiDbvPVQV52U5XC2Sf5S4GbnnMWXBhJ5N0uh8/0fmOlyuJbKovSGVolVMx9ZA/cbu4R+mgXb8EaRYraR4OU7YVIjzuhI4K1Ifo6eyTFhEpl3JybxOZ73GmA82ArzwArpemly1cARYj2c6tjDgJwjwb5/WRmoC1gIGF6V2mZlaT67pZbAeLIU1tNlcuLaxypEE2EbXAFn/yM4H/2IZBzCqXx5mlgi5Rtp8t95Hl9a/ubBrAXbaeVFMcU2hcvY7tmEPt86Ob3IpHAmn43GQ8qg1CAdscrM8HFEh78GxiGedA3Q7SvHh5NjEufkE0nqdxPIpHPTOaQyzJrcwJXkuzAdWIEtwTXSfIWuhJT1hwhmpVxSu0UB2TpRgU0jS2Gnsn9wBUz71uB6+hPhj1NZ5sJFDjVPJ9FPFEKd05qgyPWfB2KCmtYgIanYDCd1apnVuUQUc2lOo5/C9ewn2D9hRPu+amkC0j3ehE0jBRL4OM/QQqlKcGXRNMtM66xdrDf7qYugMPiWo9PL/mbs1F4AvasIzmADnN4VcI6sQc+JR/HF3N/A4l2mtuNpHsnKD2ZglyZ5w/vmqSWxeBrR9LR0paRPfDX5EfYFrdJM3TbUiq5AK+yhRjwxsARdL7C7ZYlYNqu/GD922Wj17rgoNVAXa+jYObUzwD7Wxej0LIHOdT+6Q9VC5bXvrMentzjQfhrRbEz2nnTnZENBFkfInDyNrhcXMe/vK16Zz0k3jzacU0KYQTxytg89nnUwjZTAEeTGq9KArCqrTTLijHMYFYtBQ6I/UYitY/XYtGcpTn64UzRALMKjGZsHMiUJPDNiCarTruPNb9wwHWxCj78FNj87j5fAECqSEn+D1jFmMZCpdssDuf1AHTYPPiluBWkuenj0meYjcdnMKhVLxQGvX2aR6U6ozBL94zyQ2Y1sLntTkh2DZ/vQN/wA7KP1sPurZM4FF81yphIbPcsU+U4fTSJnnjT5iz6zsrzKKv/wz/SpWWum9xXBNlEJc7AMna4CbaZ2HXp8rTAebsbQq5slxc1h8xxznOY74bvQ4hOe1myEk0gnEE3PSnqZ7MQ0vkL/mV5sHnlMChR6x9bA4K3GJncR+v7WgkeO/3/i7rGs/qcuahbuuOiXaqBnPoDBX7uHHVPLYPAXQDd6L5yBMvT5m9CxpxpvfMsJtDcl28u0tPRJpmvP951ioJcHk5aQ0kZj0JUUN5K9A1OSMUAEMzj9yQBsg6tgHS2X38Nxv8oil8gzsDMRgz369FLUTN2OqwSbx6pgPFqAIy9Q9nCRBXMqXhaRFC0ytTvSn4BAvoaRv26G/fgKODx1YJUHXQoCWR8qQR7IrJhWrgUbshRB5ymE3deIp3ZV4viL5I+vSvW1IFiEJ5oFmgcyx69zJgXps++7C//ef9OccaA7iRACJJZU6jROmnr9C7/Mdet1rUTfWD02DP4nbKdKYJwogPF0CTYGyDzwlFF+vrxAGTFMi8CjV11s0Phjl4ytDdaCLVM59MUc5AJQIVgsfC6Hi9tONMPRvxbfRF6XI5GiHTaE5DvPplSsNzen/HramNtRam+ZDbuI8XcPYvOJR2E40oTnzz4Kg5sZsTLoJ0rRcbIQG4JLxJLKSDAZC0YQ8HnUpUrvCZAfv6TrT3AlDP5mWMfq0HWKXVOXwxksRp+/Dp17yzHx3n4ZGRfl7BCepirBp1wjPsa8n5oHMmMiai9UAozGJRwXjxozuI0Pb/0FtoFW2N2VcPBk8FZrQGafC87rK9aArAJTg4v6HQ6eLIJzpATbXA+AVdoEslTLzQOZR5voDyKYzXyFna6N6B1tg9VVBVuoTBqt6McKFwG5Skr/80DmLmbpisVVhyd3VuKVL11CkVD5xOyVWGOhmpRPKEQ5ZX+/GpAZSSsgcyZcLMmgNYZvb3+A50d0cB5rRZ+vGR0Df0DPi6XQBe+F5Wwx/uz9T9j+WgU+mzpxilVjGemQRHeqTIa/sziSAW0+qF0AvVJu6T3V6HRVoWOU5TscMaANyfQWw+atRLenBYaDDTj90SHM4Dtt/gYpI8XixGNATDGgkpBivRtjlTe/CqKn/1H0DD2A7eMPYtPxEmx9uQ2doWK0TxTgybH7YP5rJXQhFjdQiagutiy786KxYfKBtJbGCvCkFavHXsWrYPS0wsC4gPfuWwKrdymc7jJs2FkA92vbQJEUWzgk2GibwOVJQveIIPo+kCncolXWgMxEWCwFsZes5LuCT9Dnegh2d5VkHeeBzFMlmAdypcawNMHIn/OXw+5ZCvtwAboHW/DV7Gui6YvzsJ8HMv2YOMdCzeFK5AP0Hn8Yfd7VMuvDopUuGcU/Xjx+lxZZjeAlkB0TVTCP1OHpnTX4fPpvYlEoPqHYZcGtoPBaWVvhFynelwruf88C/8Cf5pPQGqczIqMkWT6dvYLxd/qh27MCPe6VMA4XoedUKfS+/8Qmz/9Gu/8P6H65Fu2knALsnq4GHIolE1qN2S910WJLN0l5F/xZXrRw5EDL5Ki3jVHsUgOdm0WVbGhdCCNbhQXK4eQROdCI3eOduJb7WCUZSD0SDPQfybpRlpnKYirKkp5ZfD39Lna4NsJ+fJVUVlhclXCM1eKpoSXQh0phmCiF8UwZNvoLYGSFjlBqZCF4NchlkPa+5IvzenECmjyt6ogppw2Vi94VsATboPdUSqMUTqLtChahz1eNzj2lGH15i7hoUgDKDvbaPdMtyrFObx7IXEeVYaUBy1NwSTadp1VO8SyKSKzw/NhGWEdqxNLSbZPTToBMZSUpXm4ouhaNMHvp0lXA6l4Gw/ElcB5vxJvfeaVtUFSIA+Iqg3t4vDGLz+7jX4ffhKVf0W5GVwmsQcWlcsEULaVF6z6+DO5qgmMZHOxJMFgvU09vZj+XjBal+UIsaTMeVLW2EnATjNyx3NWk5n4ATg3w/9X3+bJoFZhIYPaQ4UQEk3jn8mlYBx6Ew9sq98nERu9LpXh66P9F7wvsOVYgbU+7fLXY7F+JzoOl6PE1wemrRc94HfTuAjhPV6PDs1wDNI9qNuQrlcDKznIcXwHsPoKZbgj7/tL9UN10hH8WqrIE9jEGjo3YsLcG714NibXliSHPTrdOTkOVRmfMEMMMdnpt6B5dC4urHCbvUhh998E+Xi48r446BXcVeifq4fDVoPNoFXT99ej2rYXF3YLeU2uxabgCXS+0SlGnPlgJfbAC0lRSerCRtahUiQZftSgXWSDBDcvu8rZgAbZQxXiiAh3PV+DcpTHEpdQojGQ6KaMYEjHFh5MDp/VlUkTcfs1CqgCM7AUzupQn0FCSiKVA+DoOnrbD6W4Vxoj9tLnB2HWIEggr20gIv1wlfy8GkyfbRA3s9OUPVeHMx4cwhUtaO62kBJ7SMos9hSjje+N8EKZjK2HjDveWSg8CNRy7ApwGb/cwgieYq2TXSCDoZ5v9KuiP1uJZ9wbcznwtpVPU99LSqLloapoxZYvkjxcHgLJz/0Xgfh/Y/LccYUV9MbcitcGX0//AvjMOmEfbpFXBk8P3ou+Vaqw/+P+g78UyWLzLYR4uxNZAM3T7S7FpRwW2DK3H5tE10B8uR0+gUYJCnbtQgjhljQlicsmMsjkHpRhd3kI4fSrFSn+agCbvrGgkJkvI8hTDPFYJS7ABm47UYvStZyQQpuYZqs+URE+cHxiOU7AfhffV43g+YEBnP4VaJdB5/wPm8ftg8C2Fc6waXb5GdLmaoDtUCsOhSnje7cELX+7DZvfDMA20wDBUD+f4Kjw9RD1FlbgeelYtswQ/qMbq0sLZvQrQnf5SPOlaAtvpcthPlkI3eh+c3nJ0DdWjY0cNvr79qoigON+FWUZx76WamZwhAU1NeVJcDtFI58HMdc6p4okMKzlA6Rirjm7C/+4BWE6sgsldL7209UGWPhHIS2ELkAFTjS/JHNEim3zV0uHe6q6E4Ug1Rl/fIm4aO9tnsmrWzD10xgkz8pyeN/bAwojSWw8rfSgfI1wu3k8DmS2PbMEqbNxfjsG/9mEq+60AOZZgRo/cLl2I/x4g8/OTcYrkCWOqnqdx9h8+6A6ug9nVClOgHjpqQ04WQ+e7H1tfqhfaxzZUg879FdjpfxxfzJzBDD7Ce9fd2P/CRimvoeKtc7hExmrlA0DFn6vAw+5j4xkCmmlUFRjyeBSOVus0qYDMkvcK2MYaYRpuQffQo7iS+Ehmn6Q4PVbS9mkkM+wTPYfPb7yNriNPoHvkIVhdDWqkxUm6K/fDHFgOq68EW8ZXYNO+EliPtuDYX6y4lH0dYfwDrre2wnqsDbaRlXjmxYfxNAVEnOnCTj4M1MU91ITs2pryBDGOlWOTvwD6IAfYLINxtAB2amaON2Hb4KO4mf5UzQph1Ywov5RvrDKSBOt/BeQ40sk5pDNxxLME8i38/fop6PubYXI3aE3h80CmmJ5ALpT4gkA2erQu93yv7koY+2uw078Rs/gOUdxGJhtTFpkBEokwpnD3jdnhGFkNs7tWXuK/BmSmGavw5O5SnP1HP2ZxUex7JBZGOq1klv+dQI7FeSBzLMRNTOEKdnitMA08AJNnBUzBWjhfrMNG9xJsf2UFNg0sh3WkAZ0HarFnbBOuZN/GNL5AFBdwNfs+3rrsloJH63AzeidaYfLmc/+VkgiiOyXHsq9SLBrJfLoUyiLngazcC9XgmlXlrHaoh82zCp37V+Ktb8bITSAZn5HC21giIiVT1EY/N6JD3wgtawM2n2wV/YfEH/5CGNxLsO1MAzqPFqNzXzWOvujEDXyMCL5FDN/hi9m/Yuvon7HZ+zAsI82w+xvQ4WJ9paJP2R1VdUhVYFbjMpRLwR4lG4bvxcbB+7D99ArYT9TBuK8RY28xQ3tRukPFUhptSE03fQeJ9n4IZNEKk5JjskSzyAQyXYxEjiV0t3EFH0J3uBkWd5OacEDfXXMtWBVC1420HLl9E/n8EL+S4aiCdagBtiNrMSUVOzeRpnApk8I9sQSjfEpDLovqqdf7gOhuyY9KUPMjFpn8KY9aDgMUHYanEk/vrsC5GyeFeuOgV86rTlMzIAWt37PIIo3STqZf0KCFn82eYLEcD+VZvP71GZgOPwyHZz0cYyuh95eDM/6cZ2rhGG+AaaQezuG1sB95CF/MkOi/Kv58GJyNQqH9eRw8bYPlWBu6fG3oOMFWqGwcks//K+AqXQYTQtQxEMhs0EcgM0NFIJPRUEGiZbwSBm8VHP5WWI+vwdBLz4CVHOnsFFgbqMoYpjD2zkEYDzTBPlwPq5ufVSOqNIOnHB3Dy7H5dA0so8UwHCnHM54/49Nbb4iqLIZJhKVA4BJO/v0QnMfWY+PeSmw7RVWcEuaYQgXgCGW5qJehyyM+fxk63MtkFh4bpxAo28ZWo2NvFbqOPITPb72qEltMZ2So4GPihm2yEshKtEq2SJWrkc2ga0EgC98sRVxMUkSRlbJ9ioTjiOIWwjgP28Ba0YkYfY3CuPwUkK2BBti5duxuH6xFl3sFOnc34UKM3TpvihaF9Yn3xBI81iKYzHyF7aTefA/A7KlWyn2W9kugV6GlbFUen4vG4EcBuUzkm5376/Bt7DVpIZCm+DmVQjrJSDafyVO1auIjM9TV9Aa/xEdW6qocZjKzcsw877XDOfwIDMON6D7dgg5voVQhWEKVIobv8T4Aw/7VePO7MeFGb8YvIZ6LSiPz2QxJ/0n89TM3ugcfhXlgJXpCbZIUUe6FxjULcMkUkOekfpayw0VAlq6TFYoJoU86xuGJHF27Et2eB7FteIOUI2VwE1EZUD6H96++Bsvhddjsa5MaNRbwGtzFUJLMUjhDqoK980gBrEeb8OZ5L2ZxU56bIRTFXrTyV2Mfovfon+A4tlrYGlJcVC5KMYRQW6S3VAMdBeRy4b35u/omVBJs094KdOxsgOdVZtCuSWJZ9ORSaEqtRQbxeBwZqeQldXEnkOn6c3QY46EsJ3Rl5qRih0wGCQA2bongIp4LPg3r6AqYfE3/HMihRjgmGmXoZBe5bm8LOvc24p0LJ8W6U8WRyqZxDwsumcrltPctw0/A6W6D2VsNg7dI9LZUgTE4YJCn2oOy1y0zfmo8K5s3G4eqYO1fhauZ99T4sti0BAVSYLee2AAAIABJREFUxEx6Rvpk5IGstLe/BpCpd+XE+jlM4/0rr8J88GF0udfC5GL7rlKRWXa9WIWNJ5aJNe480IxdPov0oGP3GrpUcQkUgUia7yGMm7mvsX/cDt2BJjg4yZMMDRMMEryRkiOnXKN8O1JdPBbvALJyMZRVJhfN+RlVsAaaYR1phfPYg3j5kyEkcUkE/pczX2Df6T4Y+1dgy8QqCfBM/iWwjqnWCjQaHERuOF6B9j0VCL67EzeyX4im73YkArqGpG5YnsSO8S/+/TgOjumh31+DbncjVJka6UIlVJcTlNZYU5cRHAyimMk1HKnFpufrMHh2M76be1+05LEsEyHktVRxMoGsZi+yPjImbR2kOECzyN8HcibNMWNJpBKqNRvjGPLSA690wzTYDJOo8OhaFEthM0vqyAbZJMNaL4Gydbweem8xnOO1cHgbJVsafOegiNLmgZwlu5e9hnOXXkTviUdhGW6WNG0nR/DywwOk3kjXLACZL0F0F6TnKLUbrEH34HpM5j6SNrSzc7eFFhN9jPCMyg8XQTTr6iRRIttW8Y0/k7UgEKdTzIJNYV+wF87Bh2E6UYutLzbh6eH/DeupAnR67kfv6Sbo+mvRNfBHXE59jDnckLrEZCaDFFlCNhWJJxDJzsnLcb+6B92k70ZbZGoVQcBj2UiFmGQ4K6EP1MulEg10J5RrwQWgi8FAiskTHZv2jdPPa8KGI5VwnliHob/2IoIvpdQq9OFRtB9qQ3dgnRgQznB2nCqEKbREmAqTpxRdvhZs2luNnf5OXIyfE0XcVJyNdYCEUHhKQRdNctD9VYy9sQfG3U3Y6l6DLrY5YxU8y9XySjMBCWnBOtjdtej2NEs50RPby7HLo8P58N+RYHYxN4tEVnUPIkdBYkDS6wLrFDKZqOpPQr35D4DMkyKKTCYsQE5EY9KiQMRQuIzgu7ugP0J2jHJSDciBAmk5wfIsq5e5Ck4JqwObuXR4CmAb46yRWliOr0D/C31ygtJZSZJHjqYnhV558dwgbP1r4WCQ5K2Azlug6CMROFfKBzOKpBZhHsiBMpmf13mkEgdPGRCVzNUUctTd0nVgrkKArMpe7gCylrr+Ja4Fjy+Ktq8kvkRP/5PQHWhEb7AJetf92PYKOyLdC6N/ORz+OjyyfTnevOwTVd5s+obQdamEKqWXVDFL7TOsZriFa6mPYTmwGl0jK9AdqIE9VATr+FKYxpfAOF4gSYnOQDV0tMxBlSUT+s1XrehJLoK4X5XoZLM+6gT8NTCM1smcDMO+FsTwKS6k/gbT8TWwetbC4lspgY3qUrkElnFyx8vRPVaNDftL0Lm7DR9PvoEZ+pjZqHSsENEcNyIzp9RrpNiHgwWp3+HlT/ph3E1d8UrYB+tgOl4pXS55NPcEWtHlWwX7aIskv55+vhSdu+rhef1ZXI5/IGVO7HfBU4r+bp4jVl8pwaVGhvV67BuiCn2/D2SySAQy5UKKngEiESro4pjJXcJfPj0ugTVbAPwQyKUi2rKw7MxbA72fWpBi2CdYhVSOrtE27A6ZMCOFCzwxMrgnlruBJG5IrZmtnwMgae4roPMVSnEgrYpYG00NRiDTZ1RKuDI4/PXQHa7GsRcdiOGCNDBRqTYt4UGsiG6I7AKPF1XGrd7OQrbv+xzxv/LfBHISYbz+2SlY9j6I3pG1eObUCuhH/wDHyWUwBu6VgsunDxVim+9xfJdgx5pbiGXYKyKNDHteaL66OiT4+plI/Rb7x0xwDq6UMiZ7oBCW0H0whP4AfWgJdKFC6EKV0IcIZE525Tsio0EgK+Wcek8sJ6qCgT/rYzte8sCroD9Uh/euj8D1ZrdUeJg8TbAGV4rVNlJL4b0fxsB/whZagr6xOmzYXYGRV/ZhMs0hQlmEE2y8wl4kSqCvSYORSrIZCy31JGbxBT67eRrPDD2GnuNrRQjWsbcGm/bUYOPuatHFPPlcBdp31WKXfwP+9tUwbuNzAXGCfG+W+rJ88xu1hvl4h0CmW8eq9X8GZMpW2bBAdW4BYlGCm37ydbz1tR/2Y2th8axUlSqSLaVFLhQpqnDIAuRaGMiHk+adKJdxH07XKjzj3YhpnJeTNUUgsxKXJeWev+2AnRXB3ibpU6v3F0HvL5TjkUBWAm1G6grIebGNw98A3cEaeN94Bglp5K01+Mjrr/NAlg47qv0UCXSVtF/cTurfT1VzU9yKXMGOo3Y8O7gRW0YeQK+3Ds+8UIenj/0v9J0hW1CLx3YU4KUvB6TrjXQKyoSheNycAjOPzCRJPL5mVidP4uV/DMF5fDW63GxQXQiT/w/QB/5DtBoUoevHKmAYJ5DLxQ9eADKloEriKozGWJXIJDuZzuakT3cdTAO12H/mCVj662Fy1YJ6DVtoBexjDH4qYPAuhyVwn/QSMQ6U4Vnvk7iS/IatJgVcbFDCYCubTkgxOo0iE0MU5sfi04imbyCB60iCTWS+w6X426Jq9L3xPAZe6sXQy1sQeHcXznx8GBeSr2MKnyAuzMck5tK3MBubQTgeRzS+wFQow6LafRHE+a5IashoWrkWWqBH+Q5NglQHMRhkIoVsRiKLRJoVO1P4fPIVdB1/CBbPKq2jKzOuhZLVo6aaWh4G1DpvLQyharT7lsE8zmrwajlJugf/CNYBxhGGADmJq1LtfPSUXfo3cHgJo3z2HND5C1RqVoDMxakTMTotMn1FWmunrwm6/bV44aPD4IiGtLSrUqfJvLWTgC9vkbVSGVGf/FIgpxBNTcNz6ijszz8Cw64GdA3VYftEA+zeYmw4ch+MA3WwD67HhfT74v+SoUklo8iycpy5+hgb1GSFUmJlbiLH5o0z4if2DjwC+4l6WF3FMPvuhyl4Lwyh+0VopAtVgOlfUQQGVWKElJnNS3E+dc4sL6pGp68Um7wUXZXJwPmOoWI4vA3C1VoGOdq4Xug5+tAWtuf1qWmgVupAhgvReaASb170S5XGbDKtuuzIxmMTmrgAWPQadJj52jMJxJKziKU5LuwWwjmu71UJLBNUJeKS8ObkzlkcHMZ3mMV5TKcvYy51W1rXMLCj2xKPUTtBa5yvnlY95FSnIbJRJIxplDQgZxRjoerj80COi26ZQKYLFxdRVxg3Eh9jy4k/wepuFSBbmP4PFMFGiSnFVwJkdrKqhXGsBu3+ZTCOFUnAZ3M1wXioDZdTH1Gwi3Qmg3tSuII5fIld3k3oGm6D1VMLS4hALUInJ7tLWlPV6OWBzImmeSA7vARyPd457wN7RWSky4/mt81TbIogJ1Uk3YB+JYvMF0wremXya3z47Vkc8OlhPVQHx4kadBwqwPNnHsGG3XXwvbtfih+ph2XYmU7w5cuqA+zsSN1ZkmX7OcQzLLWkh3hVCdpZTDrE6otCKWeyjBfCOFYCXaASHaJRIDPBoJfVFzUyxYjlRxavKm3v8JVhk68I+nFm2EqxkZzwqWaYT5TLqFtboAFG6p7ZYtVTJkKjHmbkBgvQvr8Ex1/uEp6YGutYOodYTKsoyVCvocTk4rqJgIa6Zq30iOUGmbzGkEc6pe0ziKQ5VfQKwpmrwt5QMqr62CUQT6cQiaYRmcsipQn+pQZPWgCw/J85B9UdSSg2yYtw0F5avAfyyPx+HsiUCbGNWZaCa/4slXBx3gs1Md/i2ZGnYHW3/QSQuakbpXeyfqwa7QEW/hbCMcG+243YtLcBX829KVX/WQXkS5jBP7Bl8DH0udfCTOpKZuUVQhdgwMeuQgtAppVRQKZutFzG+Or21uPz22elwiSTZSSrAVkLQiTgk1FnyrUQ3+pXsMj02WamZuUN0c+/kXwPZz56Hob9VegeXgXnibUwHXgQX8z9HVE2HMnSZ9PujUCmflJeOwl+WrusSCAi0m1pFmc+GBYtsWO4Hg5vOezBEtjG2JWfbEQVOr15i6zYG0badk8DbB5VCCrdmMaq0REqQedYMQzjJej0FqDnVB3MI2ydWit6AyNrBoOsgC6AI1gCu7cMmw4UgWMLLqY4JXYat+PT6rWypk9auSaQSfLZqermUZ9FIkXXIq0GDclRDiS0xoZSuJ6jZIATkmLIse8eSbxcWPqOiBUWakLt7bzoP5fJSPcmcsIEIOMc/sYFIDPOUEDmkuaBzI2XB7L0T9akvAnx72OgAd3pboftnwK5SYDcGaxEZ6gA+jFKhsth9zbg6T01OHftRVELUuR/TwoXMY1P4DzyALZ418E0WqGkiGNFkn//V4DcuacelxJvIYVJpEnJECQaiPn1DiCLVf51fOS8gi6dSGM2ekWi9Wm8jw8mXTh4Roc20zIcO/u8RPp8dXEuFC+xxsQwQ/440uQ6ubRxbQ5GmrF1AufDn2DziT+jR8YVU3aoEkTkjanakrJ68ZHzQK79AZBN4zXQjZehg7rniWIYmFnzU6tcCtNIGYyjbN7XLFpgo4fB6TLoB5fC3N+E0x8fk/IgcuVhlkgpD1mjvBLIkVXgzI4sEyJa0a3WrXP+GfmIvHg6ci2Yw0hmweaVBBhfBwfZRCIZsN2byDPlZ1QzU/ZxkLJ/zEmvPGaBGWr+O0Cmekxa/YnAi5w0V+Ma9vmN/yWQSXO2M744SUNQAL2vUMrqNuytxevfBMB2EwJk+ky38YlUUmwNrIV+pBgGP49PJTSnP6xKm0i9KbkikwL0+bigTk8TOvfU4VrmQxGX0EfLHyMCZgpj8kkRzSr/WhaZn8te4eKpZGkxmP78Wjjaa5kPcGR8O9786mXpncS6DK5lnKX4+Y3GMxlxxOPT4l/GoqpciqU5PJTjmMJzI3psdT2MLlcjLK4yGQREAf3/z957uEdZpu3D/lXf8X6/910LNXXSSKFbV1d3V0FSJmVqCs2CAtIhPVMyLQkgiqjYFTsuiIBKb+nJ9Dm/47yu58kEFHFh9/fufsceu48Tkslk5n7O+7qvcl7n1RguRdMAde9Y8WOBgVmLW31kTc9RPrVuYCEa9+dKJmhN7wNoGSqCrb8QjWzhZ5ewdKI/BKc/F9U7FwqTkOml4dR10e3kux8ZpR6bauYlRDWTijtsjxpHLBWVZWeulxxgekziNRnunXx4fm5exjGfTqQhFtLc4FyamGGR6R/w3gmQp6VKZ1pkWn+WopVywZurPXq0yPw+Qc6CNEEv95pCjFx3KpmRnC9AvoqdQSec3hXaqMEKsrRgsQeRfGSW/2ksSrDGn4OmA/mCyRrvPLhC5Vi9w4K3TrKwNGIC+QqOX30b7o6VcPsWCWG8PsQ5eQtAYUKqvzBjYfIIWNoUIHNmSKgYNi+reotxDT9IXxcXUhaAAr5kSzFrIblkUm8ZIBj5RxHHu7dgj64FldKZhkqlKAjInc6pqhQVGZNKHcmDsqhC4tc0klpyJkhpbUg3jclmE1EUWWy+V3r0o/jwRAgtex7FWu9SuHx0sfKwxkOxFjLHCiX1prOWtUwt2hjkohhtUjeVtw0Cv1JC2UmSj2rfXFBb2jlQBpt3EVq9j+O5DRW4lDzBOqNkyrWsz1SXkbeV3C1PNVOHTXsfVQTRSJUZPXP8rL+8DKFE4YKTD64dK7xP5qW/w+8rWZ46yLwkhyyae/w7XEPe3Kzcl3mv+V7YLc+mYF6iOULVUfKXjbK6/81tsHVWwdZvgTPMIpKeeNSlsxkdLfVBjmnQNjIrqcXSrFqG6vYC+D7ZKOlUuoX3kcTx1ZUjcHWugLufWYm5qJeBj7TMvHFlQusk04uUTpY46W5YDen8JvZUdS7h6BMe0lL9IXjVVDJZrl0ETHnykjwyE+n/ECATwNnF+rWvfzsfrQIvtBpy42iBePyKBiKpoeO4OPkVXuj8M1q6FsPlLUFdL7syFqJhMBf1A9rvxwLR3VxiyQcXiJXmOjs9D6N680p43t4lII5mJmbl3XkuE7y8uH4ENruWCbS/P3X5j/odkfoSuS9T4V41TGRD8H4LKYwAputDX56ZcHa+xxB6ay/sHVWw9xdKWk0bE/JhC1PEUCujzKvXB8gXsaCxv1D4yWT2VXfkoPfjFkmVsgFZgHzswhv3BGRKrpKxz3iUBln9M9bh/52AbCiu3wJkpifb97tk/ERroBLVXXNlPICUqo0U5N2AWH4nlIfm1y3CI7D5FmHN9jJs6KvF+TgLE/R9GfXz2Nbj21SOVxBrYUkt5r8ukOm9MdCkZ0wgM1Mv3fWIYf973b8LyASzCWQOWRKKamcu2o/abwbyRz/ul2JIM/ukmHKLzJERZCTE3MkiN3rysb7/cYzK3OBZQBblds3Vcnf+syzyvVmW2RY5Ozoga5EnJCj54JQXLZ0rsTawVEqkUn0L5YgwIDM3dw/kfLhYdvXniegKR7l9dvGg0BOZKpxOUkHJcEalPkxAM5VFS8xLFUjvbQ3ubRPcySKbQDY1O2YD+a3P+n8XkKW6HLKIW0Eg00eu7crDjjfrskCexDUcPRWGo30ZWoLU45qLxoG5AmSSNe4E5PreXLwU+RM4+ISuxYxFnilf/nNdi3u7idrCfvvRAZMYS/+EG/gGG3qegrO7UlI/Vh8J85SX1RTk3QKZR2lTIA92fxHs3VXYc9gpkmUkn4/Gbwg9Uf1Qxh0m6YE6xarm879tjbn2dwKyaNiJwDrjI0nczVjk978ZvCOQ6VbQzWAwTf+YQHaHK1DXnY9XBp/LApmk8re+8wuQ2a/WKKXAeb8byHXdC/Hq/r/IqAaGWgJk+sgCZCbt/7lAzmQy+K3rt4F+C5AZGEn7kQYyJIlOpKlq/xP2HLSjbkeZ6OGR5upg0SKoEmJ3D+RCNHpz0dxfLuMFziZJZD8v5PNxjt7iMpqpQq6p6D4reH77c92blf17XvtOQJYuIQobSoGGA4M454UBXxSfnjz0u4AsfHJpXiiaAbK1pwAb+v+UBTIpjYe+7hMgkzlGINuG5guQmyLMWPx2sFfTOR9bDj4rlbMpBk1cfOaQ6VokOVnpXx3IqlREyzcT8DF6F/04JvVHpPT+wRkfnO0r4eitFPnVRpHLYvB7d4EewW+TlikL3L5yVL9WjHOZjzCM00I+j6Wjkt7ixpLg2XhkpY1A06zA/z3A3g7cdwKy8pfpcmYQS7DThKk8rTR+cfqtuwJyc6QS9b2FaO17PAvkMVzGwS97hBh/N0Cu7piH1w6t0hJwmiVo5nX5n/87QJYE8G/853Y3QL9Pi0w/2dD4nZWqEtdUJjBNYDj9I67iOF4JVaNhXyVcgSrU9rLLnK1Pdw9k8rxbwmVw9pZKmf/w3zqE2DSWviqk/+lptrrPArK8P5VP+HcBcjzOSiNdzgyi8SnEkszo6wStr86+/buAbGfb3SyLbAKZ3G4SvGayFm9+65WshctP0ZW5sIYe/N2uBS3y9jefF9eCPrKMC5Zj0Cj//pMt8m8D9U4Wi2wu5mBNseqb5W/lZ9Jndk0AtvtgC2ztTFMuk3lxzUMMju8ezNJ17StQtfv2JXg1UCdzCZm/ZntRPMH8bBbI/FrTWiw163Vvn/9O63Pnn9/JItPGMIdMjT/yYpjUjKcmJf32w9VP0biX8gtFMuqiiWQhdhwFNK1p+sfyaPjI9mApHCTc91mw1vvHfyyQt72xWoI9HhgzQP63yFqQJK6LbAZO4l4YlplWb5oayxkyya7i/bMRNHc/CUffUti8JbBTXvcegMxgzxUsRLO/DI7OKrR1PY2/3fhAKoos5JBdRuDOfk+axPj3AbJom7Ca9ytAPnXlk38dIDPY2/r6c6KL8e8JZF1kBXJWcV2sH5X8k3GjBWpEhrG8GrGikSKP/RWo9yh9827dC1ofZzgfdl++tFU17VmBgU/3ipsmElWM8ll1M3x2+u1iiQ25sX+I5Ng9FlPuZJF/DcgJIW/FcOLih/86QGb6jcEe88iMRWcs8r9F+o0gNoFM98IUqZ5VnRJ+XBwjaXb/Xkbw2HY07FsCp68C/Oz3YpGlk5nCKN65aAkvRv3eKmyNOHAdZ1WVJz2lBPZZYOP7JYDNi6fG/6Z78fcAmQURuhYmkI+fe+9fB8gsiDD9NoLz/95AFj9ZiwzCwTX8USnkABhNjWIMV/DVjcOiT9HYXSoabOyeuVuLTO2LxkGdGtV6oBLWjnK4Op7G8eucRMqxXhRv0aGS6serG8RjWqzxPUry/iM2wJ2ALK6Q4Vowj0wgkxPDEjWDvX8ZH5lci02Dz0iJ+pcW+Z+fR77XmyHRP8c/yBgBo2JmDJvkkT4+ocro7HeglsRlfIdNkdUiHuiU8RP3AGRqAR94CLWRP8CxvwjWnjJYd69E5FgHRsH+PHarKJldigkmaUcCVIL6f9cac+3/HiArYYhFEeaSY/j8h8P/OkC2+y3G0Ouff2mRk+Qm/3PzyPcOZG3Z0RScCWTNFhDIk1NKrSbNheT8YZxB8MtXYG0vgd3PyufdA5kih3VD/401A/8lHTdN/RVo7HwEL/mbcCVzVjrERbdBwKyNuzcD+n+XMPR7gGyShuQUIanfIMgSyJ99/8Y/Dsjs6zr8jQ+uDnZQk/02T9JvdSy/hjmQ5PYFEWoOUKXz5fBTGMaP0gST9ZFJsMiShkgVUPYbF18piMpjZcnVpHMqpdBMLWlgo0Azswsz6TKhFd7KNeBr6zVjKcjMkkv/hih4mpNRjfck1V/JJ+ssa22OVelbBitUDZjkDGhMYxg/4bPLQ3B1PQx7b4VwkO/atQjnYFX//4vVgf8jtNmWocVophrSjofxU/xLkcWm/IxaZYOqKdZYp4+StXfrnDtzY5t55t9+ZCxgphyNr2fuRXYtzTXNPs4+CW5+nrnu+j6ocK8UUd5LMuC0TK0MuE9OHETj3lI4WRziqN5+UmELjPRbLuoDC9HEvsgA+SwsUVPttAiOYAkaeouw1sPK3jXNI7Ou/9nZQ3DuWQ63rwyN7BgeoOCdtvOwk5Xz25SPrANLhMpJWl2wRPgZlHEak/GqqjAklSghcStflUCdAbKhMK5s+CydU8uvStYm4KmnwEsbHMSzUn9RrBP7iTWxPlPMMHizykNQYo2yxaTl2ODNqiiMWSmjxc0SwSmuyyOPgiIT2oUhg9mleQSTUR7xSYxlqLV2Aa96GkVnjW1Ndwtk/h6bE3jV+3LgDpXKPbB3VCD82SaRVxhN08WII5ECSPFWDgDrp1SG57AhVW4yjYG6SgwGOauFmVstDE7FaQ2pZpvGJFV/tOKtPzTakPS+mfeMge+sDSOulwbECmitLvJvJERJii4DX5dkemP8gqRbyHOi7IOhj0E3TlhwUbzzVT/cPaVwB3PgpsH0cc43wUwqJ0G8EA0EcKhE2W8BjrWYB2e4UPjIG/2rREhGRAzZmv3lT2/BtfdhuLzUM+OkTwKZ2hYWaQBUIBfKNCB7kNJLOWgIsRBQDDeLKLvLMIzvxF7JQhN9soJcFC5IVgiagGYAoCRx+tAk3/N5ahkE8LNArMxVjmqgrpCOGSYH4mYgm1aBC224B6JgbgLaYMtTFMa8swbh3+wx422WjgZQ4ol6ZexSjiEVi4MDHKem6SWnMJkekfTYG595YN/xGJy+ynsAMhldnBpbAiebFHy5aKEKUGchXg3/RchKE6KKxIBP96J0dxDH7IhJjsp7NK2gGgxmYRTENARmYXCaqkrS9ZRBlOPhjEYR+cJsS5Mn6x8yDYJYfXN4+gyYdb3poycyypwwO0J4X9jKJM0KzAIZhD0CWaulJp1zGoeP9cLdWwQ354MEFsHuK0eTj7n5fNgjC0T8u0EEM0sNIHPc8EMyGL56nwWvhKyzgTyC4xffQ3P7o3D20SJngWylQF9AGylFNouzgUVDLAtkW18BGnYW40r6K9EKkzfMop6YUgJIMwEEqFxGNkCBTNeDLogCTD60qHdyl+sCMYBUz4pA1nb02YurrgYDH63QmY/ZY9AEuXkcqvsiXApa/JmuX95cltgnAekE19MiTTEz/l9OByobcezZVZyPfonWjqfg9FfcE5BtlITyW9Cyvwz1ffNEkMXRbUH99kU4MfqWcljYAW304omRo3mWrhZuNpUgI5j1M5vFEl3WKEdSZDjHI4npREKuqUQM8UwSUeqFzdrYpkWWhlOhiKphkEHqM//OWmW6e+Z9UiDTIk8jLcKGtMoKZBnfbPCS+Tt6vk5h/wf74O61wBX6fUBuoB5hYK64ItV7Ldhx0CUaGYZFHsXp4WNo7XgCjl7ObciZscgKZB0LK0KGvwLkxt581O8qwrn4p9oISJqF2ZzMBZeFVqEPscZGpepmIKsFN+WzJDDgIokVJoBV2UYWgT6c7AhacM0BE7ymaIhoMUuelVaJN1Otkz4aouN8vjZASYBKj03+Bv/F1idWJYXMrmw4njLS3ZfRAeGUoz2f+EzkXe/NtSiEjZaYQoVDnASQg7WDpXB5itG0uxwHv9otsq6cvcG5knwPckTTHxLUEcQKZPWVCWbTJzUMh2F5iVfRuksnkcgkkKCwYIq/SwtjnKByb0z1J3Nj3PpoAll99iyQuaY0OXQtjIE43FxJwwc3gEwJWJqmBCbgP7wZLgPIrkC5WmS/WmTbr1jkBv8C2AJUIsrHmj0W9Bx9IQtkTl86P3Uca7uego250SAnOdEqF6iUEX3kQKkqcv4KkG3eAjTsLsapcQ7BGdVWJx5V9OdkxgcDEgWyBHu/ALIupAQdktw3AgIh7KhDQaDS2vA5MxbE8OsYVGRBzK9n+deGxaU1k0uWUIW2GEDpJZlaA9balyb+Jt8nvZ6YNnNOJ+KYSI1KqZriJhSkaet7VHQs7t5HLoQ9rGMFaEDcAyxZ58PeW4gN/Y9ik+95jOInmc0Xldyx0W1BF4CIJv9bZniYDL4skIlPXtSaEEYiu8+k3UgtYkJyuToKI3t6macWH7Mnl37N75mgJtFK+/dmfGSeiIYhUCBzxMYtQJb3QLBTLGAU7QPrFMjBhSCQKfzN00kKRREdGW26FnZOpvKpEpG9Px+rdxYg8sWO2UCexPWUju1t6iqVbl62rBPIDWHqAKseeIwRAAAgAElEQVRqzi8tso4pozg05zp8ffWQdLQmDQc/Q+RwrY2FlsICMXsLkM3igwKZC0UwMdVEHTPyDXjc0z2hs2UYInX2tL2dgSTluORGqxWWAI7dvEZHbxbIdFdMX5vsac3TUkFupvBglIRNXnIyTvkLzoWelCIFpVt/jH2IV4Kr0Lh3kSgL3T2QC0TPwjlogdU3Fy6Og/PMQ0N3Ll4IP4qaVytwYpjcC84XScp4MHGPxcHNGJNHdfPdZJEN941LFosmQQZaPJEA57qoozaFqcR16YymrBVjA7pVXBlxzcSgqGU3N8TNYDaBzHWn8VBjoo3Fs4I9npi8GbTGvAhk3ltMi2+7zWczLHIOXIGK2wLZFiIuLaj3zoeTk159+Vi1oxCHT/aIOyuuBa3SGC5gY9+zoknGtnQCWTXN7gxkV6gYdbsL8dFPIXlR8bsI2BgRy2OKxzU/sJF++xUgC/bFAhhEd6rTGL6WeUypL82VMP1v42vmqcV/08wIvQ7JejDzMfsyLLUA3jgCZTb0TUUHWh1lmJlAZiwaS/L2R0VYehQ/wP/Ri2jpeVjXq58SCXdP5Wyk/nSEgtsLNGPkmwe7rwBuT6UIWlMHmKVxqh9N0xWgbZAmWQJZj3luZM3eaP57NsmIIEoTUFSc57Evn/cGhifPIoVhMT7adc62LgoXGpVEw0WRe8ONIRaea63FI4JWDcitQDbVpHToUTKuRwLTmEKuzzBQn5CT7eXuaplXQnA6gxVo8psWORdNA5Q15pg3SvaaQF4AF9VhvQVYtc2CD34OC+aExqlDva7iBc8qNHbqEJz6kGmROVHndhaZ8zWK4aJ27e48vH2qV7XGYlOy+xJRpr2YwzU/8G2ALLufC0UQcaernyoBA4+/DKcpMihRaQEBsglmPrIKN9NNzEBH/45MGDI0e2dOg5mbYRzJGUoF6AwPsUaGNVagKGCmp9MCIIobjuMcfph+FzVbF8HdtwROL4eaq8zu3YE5H1b/AjTyaB3KR63nAThCuWgbWoTafXlo9TyCF31rcAUU9h7FZHpixk820w4EcBbIRu6b2CHYeYLxYEwlRDgnnqa4+TCGY2dw5sonGE5QBPCSgIpp2JjIKNBC855lN/XNYM4CWUFPIDPXz/fBe5f123namkAWnrqcB1QrGhM1/A3tzwqQOb3KBHJDP10LE8jz0NCfD3tQmYb1fQvQHC4AEwwc98b+RrooBh9Z0/y7Drhg66qAnSo64YWwUoMhQpEMihdS16JAhnNr1iJXNC2YR2YCu669AN3vbhQgT6coDakLSGknpmH4AX9hkaWdPWZ0O3Cnm0BW10L1JqJIU+PMvGvc1RRPmUoLtsXaJGJIcXK9jEPjImfELxT3nMabAw75O4zfCHxxd/jIIITJPVq6UcRlOLsegXQnePH3puKMxymVdwnjOIOdrzeiYW851g+sgLUnD02UzfLnivigyl7p1y6Ke4fvUPWT0cEcYZEjqaYmQ1WeAiVOfxncnuVYs7kKx0fexbU0C04M+qJiHeWzxzNiiQVAcioZgZVx6gmQRUFpDBmRvCJ/4zy+/ekwNu5ajdc8Tfj4dATDIjp+EVejp0UCgTJanIstt9HcFMbGkPsk/jHBzvuq6T4JxMUFJJDVFZTgXRJXtMVANDmNaEbjjHMjX6Ntz5/g9hfL7EKmeKm4ROMoHBTOPAnPEz08cpCZX2ZbWGPvfJFlWP1aKU6Mvy/6JTSA91Hajiml9jfXoamzUnyRxgg7hBn00eqaQM6/GcjBYkN8rgC1HXnYd6RVhjUyec83zf9QTlT93d8CsskZoH+sR6UuhO5sAlSBnEJ0elKONrMhZHp6QoetZMZkciuLyGyjoaVgq1A8k8D49KTMp+bRJm8skUZifBqZKepC6MgCRtD8ik+hrBpBTKDIv2WmEeeLnIfn6Ito7nkEDZ0laPRwPkeRVJusvhzwolUmeB2RIkPLjV0kv+F23ARkFgAWoEkmquaLzrLLuxjWXYsx8OVO6oMKTzmamTS6cPSgUovMgFoDvdluBYFErTdqvLGTgiKTk/gBu0MOvNTzLDZ2P4PaTYvRfWQ9vr36poA8juti5UYnhxGNzdL7uAnIan0JZFpuVu34983cs6bdeDroxkqyIEKpvQSnOnFE8VX8cPVjtMrgomKpS3CA+gyQOdbDADJldh2hMhFxcfgLYPfmwtFXAuuuJTgz/ZmKGGaS1Eem6z0O3/tbYOtarDdngBKovDhDjkDmrslTyc+gjmOgAjsve6QAtZ152HbQhlFclDQWjxH1jwlk/oXbAZmBgQYY6uPxyDdLyubCaGCREem8GKYT4xiLXsdkakR8rWj6EqZSPwvQknKzrssIYUop0fcjSPkJOSslHpsUzbNs0EhaIdXfqauWFoBIatXQdOYko6SM776MS+ljaO54FE0di9ASqkKDL18DtQEqaVrQ0J8nYObXpjV2DtzBf54BMmeUcMikXqJExCGJfk55Wo51fX/GDfwNkyILy6bUNKYnEnI6EUDiWvwakNOk1XJzT2AiQ92Rn/DeqV44dq1Ec+cKrPU8gtcOrkLNllK0tD+J3sMv4vtrH0vumpmFG8PDSuoniGeArDGJgpiCiDxJGQtl75d8bRCvaBDIt6DlnkpyFLrO2v7yzBto3v04XP5idSVkXC8tMscwcD7hHAEzS9MEsoPFN7qy/YVo6LDA1fkYLmaOy1lJt+Y+ZsmmMYGDX3fC1rUE9mAxbIP5AuQ6llBFMusWIDNFx3o3S4esAPYU4IXg87gioxfIN80gRc1cpt0kIr4dkJk8V9eDgJZdPVP7NzojWBjhjLbUFGIZDhzk8Uh/jppo9O9+xNnRD3Dkm170v7MZvYdfQv97r+HQV9344NQALsaPy7gF+oaxFOfbjRl5KfbG0m2hnOq4jKeV/ceFTwLxRBJj0RsCnimcRsebDmzwP4rGLossqi1iQbVnnjSf2rjhA/mo6WNwooNmaKEJ6N+2yCxR07XQiwpOOgmA3ALOmStDs38ZVm8uxvGRN8RikhvDQRbRSR4d/Ci3B7KccFytaabwLuDM5HvY4Hkard6H0dBRhLXhJXB5FsHWUYqtQ89hY89f4Nj8NHwHdyOa1g0jFt4EslEN1b+prgVdDTPjpJmlbBXV9NGTKY6RS2CS6ywG5gqOfOFB855HhasjPjGBHDCBvBCNkYdmgKyubRGaQ6Vw+YtQsysXLwSeE6FvCtnMAvIUPj43BEc3x3EVoWkgD3XBXNRSrE+AXHSzRZ4N5IF8NHgscHX/CWenvxVeQIzl0JQ6/ncGMqNYtcy6KNnWHgYZBBcP/anUBK5HqcB+VaYX/TR9DN6jr6Ct6xnY9zyM+p1L0LhnCeydy4xrORztD+O1ISsOfrkHlxNfI04V98wNJBITiE9N6YvLZKcJSU/xjzFNlKD7kVLiZgLn8ckZD6xbirExtBwOX5HwIjg/j8AjqYVgpTvBR1ph9xDnWaur8ZtAFq6FIQ0lqp6qfq/CiOyypgWqxPOvWRD45CXZtNPg/JOYZC6yQKbRuLUtSnUkeKKMi8TAj+h+Zy3snUvgDlTCHSkVzkJD73ysj1TC3lmG9b1P4K/NZfji9JuYSl3H5PT4zRbZADKtsAZ6dGlMF8LIrUohialSI+fPB6PTZio1Ll3pnDPY/9YWNO8lkI2pWTIY/pdAZrDHMb5NPg70KYLbX4RVW+dj28EmIarNAJke6DSmxXF29a5EU79FpmVyiItaZFIVbwVyvkzboUVuGqC6eAnqdq3A11c/klR3NMVJQDx2lESiH/qWrIUEezz2qKJJy2wuih5jzBzImnDiEkuqIvQ6ggvx7/Dmt714LdII646lcHsfgc2zGE3eCjiClXAPVKpPxQCVI2I7SlG/qxJdb7XhuytvI4Fr8jdjcQ5qkYQQ4qLoI/kh8ZFj9A2FAHMd15JfYGPnE2jtroS9Ow8bXudi56Ca5JXXS9B8sEyCPdO9oEUmkGmhed0ZyBRC1IvzSJj2lNSnyAxYYOMUo64KbPQ+g4tJTlu6As4xNHa4YZEJZKXLmj4y/83c8EicwjmX8dbfetHS80e0BJfLRFX36xYZa9wUeAgvv1mJpq58ONsrsb7jGVyOfYMkaJG1xGymIvlI4zIDZBZAbgKyCWamjgyihxFrMHikll0C7H88j10BN1o7fgXIxoQn0yJT/FyA7C2EzVMIt68Yz22eh+73N8gwnBkgT6XJo+LB8zWaPY+gwVcglEICWX3k3wZyYyQPzvAiPLe5Ah+ePSybYjqp5U/OH/5ti2wCmRpnXBSjP40LRiBT4TwOjExPah4V1/HGNx44dv8RddsXY23ocdiClajxF2C1dwGe98/F84EHsSb0AOoic2Dbn4/1by7Bmn35aNq3FMzMfHuJQ8JHZJwsLU4yHZOxWQwGeZMScQZILI+PYTR5GoG3X4T1FQs29lNlfj5ah6hCugCrfQ8Z0rr5Msev5cAiscac6ccsBi0yH38byMp844gzXpwQpWBWQAszzkvdi8Vo3FmF9095RUw9niZZSMvKBJKW7m8FMq1mFOOpK7gY+w4v9K2Bs+dhuMNVcAwVom7gAVSH/gv1wf8js0rsfblo3FOED8524UqSY+aGVUhldtbidwHZzH9qjC6pTCmEcBLAhMQvU/gZL3VUo63rMZm2Ku5VgJoqVTK3kFkzjmcTPznA9Jt24zT15qPZX4rVWxdi4OvtwkKM0RDSR56mPyieyxm09T2Jxr5iWPtzUNNPoW8OR+SUUx6fbLRkjxovSj3R/1NHvTlSjj+/XIS3T4YxIfL+00jIfLbZZHDN8Yq7ILV9rgoT9KqELpwBo3InipiahsZUknYlhhFcwuBnnWja+ZiMtVofelQ4qVTTt4ZUGbNhfy6s++ejeuABrIncj9rIHKzxzpGFWBd+FPU7l2LXUDPOTX0jn1g2GVOETPiz8BEzKoTMDyR/wrGzQ6jfXInXDj6Npq4cbDhYijoPZ4nMR+thxgeFqOnMQX1XEbq/tKL7q3q0DCwRkT1TS1qBTMusre5cOwqz6Cw+AlmHShLAnEliDVuMy7DUvgIZkli3oxied9chzqE1qRvSYi8pOMmN6yY0rTEfGQCqxO4VdBxcj7W9f0R9RwmahxbBdagQqwL/hbqB+2UwZWNfDmp35+Ll4J8wib/JUKPJ9GUxQnwtyX4KM07dPm6epATpZsX15rSfuhW0zhmt7NE4p1hU4p28IWlMZixa+5bJ7D8FMpmXFZJ+k1hBxg5zhk2+SO4yX9/Qk4+2/irUvFaEt050yknDlCQ38n20RFMJaqJfwfYBG9x9S4Us7jpYjJrwfNQO5KIukieWgoDW6UX0V3QIoTOUi9ZImfhe+95YJ5kLecPphARMcvTM1OiZItIoV6wv022YRIZHJZO8XCwlIMvXTOtMZEYlrffOmQBaPX+CracK7v5FcLDzOMjZHqqpS6Do2DRaswKxluYR3XpgMWo6CvDiwJNw7n0YA5++Jv4m00DRMSpbA0xXR2MxjMavYxrX8HPqC7R5/gynd7kk62v7OEMkF21vWPBc1/8D5+ACGazeuGMRNnQ9jSv4GJ9c9cLZ8wgau5egbfARuCKkeJJPSx43Baxz5cbR13NRAoBD22WkwEOwDiwEB+zUhktQGy5FHWV7wxbYB9gClYNmbwXaOjlM/FsZyhlLkF1mpBRZiucS0k80vsf8ONNtH3zXi+bdS9HmrcC6QepwLEDDwHw86/tv2A+UwhVYCVfPE6jf/jBOT7Mcfh7j6fPCy56aHFb/zgCx3B+ppPIU0EIMU6VS+DLK4sLn4skqhREm79OIT/GHyjCYxAi+vHQItn2LYPdQ3JuyY7kSD1DVihcNpIz3COfK3BUOHKoXjbwSbAg8ioYtlbgY/RTMUolbmk7jvngU4KLQd+k/ugWuzuVo7CuCfUjnNtQMLkDNIMFMEhEDGs6So9Ntgdufj+ZQrgxVbGovwyvBGlzN/CADzmOZhMy0UAvM9AxTaya5xSgnMwcp3FW2RLFycTOQJR+MYfyc/ApbDjbA3rcUNZ25WLufXSvz0BzJAadkOvkhOQOao9OMtCCVRHma2CQ9xrakErT2L4GrcyleG1yD01NH5KYxFTd9lWaNCXvmOYdxGSew/U0XrJ1L4Awvxeqe+XAeKIZtgMNs/htbPliKmu7/Rmv/IlhfqsSx04MYwwlR/l/f9xzafH9CQ3cVnKEqPb2YGw7NF0V2MreYcqJMlrO/WKJz6+D9M5OiCOLa8CLUhUvEMtNatQ6VwtZTgMadJXjvZK/M+6beBrtxZNlMAKeB0RGKnzB5dg2nLr+Llh0r8KJ/OdaHSlHfc7/weV2vF4i2c7XHAkfvU3iqtQoHv+rDNZzGaOa8zEqMJajiT+Ni0GzF59XIzXRnaPW16pqS9BxjGqmiCqGfAurkm6dUXZjCU2nGY+M4cqIPti4LbP3zjNHCxugKxjUyEYsTT3WGIZX+60hiC+fD5i9Fa+9KNO98HDfiXyOD6zpsh0COTXH6D4+hEXxwKgRHO4HM1Fo+asLzUDu40LDKvwbkAgGyO1CIxn0lcO19Aj9Pf40JqeHHhTbIGn02PaMFD1kIOXl0yZlrlsjOBLKUnhlqTEkryxvHe1G7cwnaIo/C2puP9a9XoNE3V8DsDOTCST/qV4FcCMdQCWo9HBpeBaenDGu9K+DYvRRDn28WqyzFlxibTFm+HcflxEmEPtsBV+/jaGIQSeI7B9UEc2DtXyCulTOYD1egEKs2z0XP6+tlnh07ZCZxFl1H1sPd9YRsOvqj4oaFSBLnTdNhiGKRfSQcFaMpPBcNAw+iPrJQXYtQKepCi1RInZ0Qnjlo3V8Cp5fjfyuxNViLCRnMSeIPu5FVIDCeZNqTDLQEhmOXcPLyR9jY/hwcOyvxUng5nJ5cuEJMCeahxjcHTREqW1aiettKOHaukgzABC5iPHNZcueTUzfUCVdkGu4FXQieqHQtlAM+Y5GN4Nx8OklfJpBpLKbGtcrKGmnv2y/B1cfy/nwDyDmyThxdoUAulcoxT9ZaThcLzZfsEDtIGndX4FUPla1OIoMbWSDzZEimyDQYxffD78Hd+ah0PbBPak3/XJlGpO4FgcyS62yLXCBtKk5/Ppo6SmF9bTFODH8oauu0pswd0oXQCo8WOpiDNIEsHGGDLM/nyNFFEDNvSdcEYzKAe88bbajZVYkXDv0RTX6LjPBq9M+DrX8+fglkWmK1xswG2AYsqO7jSLAKmbu8IbgCjj2V2BJ8DpeTn2M8dhmxxKRQUJkR+PjnATTsWoG20GOw9hULaaXl9TKs6X0IDf5cvHBoGf667X4ZU+HatxQ30hTlZvvTeYnGv7n+Jhp2rMD68JM63SmYjyYOwAnPkaHh6l5YdIwZRyKHOHeaY+BY9rfIgB2Zcx0uEhdJRin75qElVCTpvzWbSvHJ2UFM4SomM8PiB08kOKKBgRQLDiM4P30cWwJ2tHQ+gRfDj8HeU4D67rlY/3op3BwX4c9D6/7FsHuWo2H7H/HFxaPCe57EFXm9yThBnECKdX0z+0D3YsatUK44/eQZINMvn7HIfCr7Hzmwh7EQMDFGHjRrjMN4pd+KZh/7HdltpMPeueHpB+uwTZ1RSCDXhReiJsjJs1yzctRsKUHf4fVS3EljWOoQxNN9/CMEFxPVV1LHsb7vGTg9S1DvK0RdMAd1nCk3kGP4nCy3WuAIWGRQt4uDuvsXwOHPg8tTAev2Knx0dkB4CWxH4pRLvrZSNc0GU93RQu4RRpqSTsRym74YxylgSo7HaziBjf7VsPcth8uoqK3uvB/Ng4VwhfPErbjZIs8CclhHDdfzPcpwyyKs7a/EOu8yNO0sx/s/cJjKZfGJSZb/6GwILV1/lHnRz+2ZD+dAiYxqI6nHGbHAHSqD06uEIQ7J/PxiCElwUigBMApaNHKVXwnWwd27Eo29LCTlwxaah6bwQwpmKUEXyA2jBaLvzJvJap6MfguW6rQobsZwPpoiC1HnfRDN4UI0+0pRs9WC9jeacWbiU4lrRlJnJZPBSadXM9/j2MU34Nr3DOwdbF1bBmd/GRo8C9EyVAybPwfWnoVoiyyGrbccFBYPfrhbODIjaQ6VHAMHasZkylUKUbaQm0AW/gYDdrY3GUCmjPAsH/lmIOvPyNBjqnB6SlsXxnEBbZ3PgOr/Np5wtwUy08D5AuS6EMv3BHIF1rxagneO9yCFi0hjJAtkyRFK8+AEpnAOrw00SKm63lMEGwONSK4B5FxdWJlelA32mvy0ivloDSxG057FCH28DWP4WcknqSnhT8wA2TiWaKWlq9YkvBtJc/rTPIa4OGRIsXJ3fPgt2Pc9DHdgBawei4BrTe+DaN5PovU8Cfbod5quBU8MnQWoBQvO+3AM5KLeO0dA7/YWYUNgKWq25mH361ZM4BRIzfz4XAiOfY/AurcMTX3sHs+XmXoNwXlwDxXCHS6Bi8OCOirRtGsJOg67RTc5mqIvyQJ3DJOZa3KCvPO9B9YdFWgLLJVuBgLZFn4QTRGCeb6AllkNs/RPK62KRcVCCdCqKW8k3YAH4YgslE1b1zEP6wIr0Nz1CHwfbMJlfC0jetkveSF1DIe/70Jr39NweR/FmnYL3INVYsnoZ7sGLGj05sHhKUX93hI8tykfW8MNGMXPGMc1jKWuQ/Sgo8NyJMZjUWToJ5j3RKicWmrW1jO6o7cA2cy88X5S641GzGD2032lq/jDyKdw7XsMzZQ+YMeHbOKFhmthWmSS1RTIMuKCp1WgEC7/YtRuqcD3199BGleRwdhM/eE+3VDsV2Ou9jK8RzfB2b0S9b20RkWojzBy1FFlPP6oB8z0EQM+DshpJJCD+WgJVMpQnM1BK65lTmgZWYa58MOa1R/W6fW6FchcMzM1x7I185jTOId3f+hFw97FcAeXot5nQfPBRbAJf3chqnsfgIMckF8BskxTCueiPjgPzQfypNfL7p8Pd38BXJ4iOLtK0Nq7HIHPXsLbZ7vQ0vcEXH1L0RquQpM/D837C1Dj/R/U+x9C24ES2D0W2DoXobnzEWzofhYXZZDjFUxMsFGVXSQJyU0PJ3/GudjnaO18AuuDD0tmwz4D5AeF0dVIhSEOGqKbRlKMXBaVFpCxXGSAFaIxnItq7/1wDuXAwaGT3XPQFq5CzS4LmvYuw46DjRg4thl9R9dio//PsO6pRF1nKazeYqw9skxGBzftL0BtYD7W9MxFc6gCbf4VWL3Jgi2BalyIHUMcw7g2eYn1TWH5UfqVJnR60mAxiiXWqj7vGTumtcdDgSxzeY2pTuYpSyPO5/LIJ4GFNFIKezOhcORbDxz7VsLuLUWDXzulTaKUdOoHqMl9M5AbBwpg9RVIud62YyVGcQIpXAMypAzTfaVrwWmV8TimUxzndQ2HvurCOu/TaOgpR62Habc8CUQ40lcS1SQ2i1UuEivY0D8fjlCedME6GKnvfhQXk18a42HHlKMqQDZykMbOluqQYZFjt5DuCeQEbkg7/JHvO8GKo6O/Co0Bi+RuXQcsqPU+JIMXSWbi7GLTImv+Vge/EzD1gTlw78+Ba2ABmvxz0DpgQX3nPLy0fxlcfeVYG3gMz24tgN1TBVewHK6BYjgH8lDt+T9wDS2AI8yZ1n/A+tAyuDuWoWHzchy/ckQ2fTQzIv58eprBDNX62ftHEZcfsOegE472KslQcL6yLcwA6yEFMkkxkpsnkPV0o2Hg5FTeRKafdKwZ/eb5qA88JFbZGeaYBgtaQ0uwIfI4rLvL0bSnCuu8j8rohtrOQjgipWgaLMRfvX9A06F8rOp/EM1vLJK8f1toBeq2laNp6wp8/mMECVzEjakLEiAyfzQ6rvMG41FOjNSMqOTYpZqn/Y/accesCOMqpt40yuOpq8ZJu3QIauKYrxNPULphHJM4B++7L8HevlTqFQ0cmsniR5gWmfdRNzPvoWmRGwbyYB8qQl0fiyEr0LznSZA2kEwPy1QEZsMUyJLCSWI8xm6BYRy/dhSt3c/A4VkOZ7hCshcEcb1IBCxAI306+n0EFTMFNPv9C+AMlMDRWwHb7qX46soBcIA3X094FL8CZPrODPbYhvRbQD56phct3kdh7SnB+jeXocY7X8aDuYY4i43vhbnIW4FsWDQOcgwvkCDLFn4I9tBcmT7PdJ3LTz+/FK3hpeJ72fwlSmEN0krMgy0yV3xbRzAXMiRobxmqX16EwY92iV9N4hJpiZIy5P1kCoyk0uQohlM/4osLQ6jfXoEWXyXquuZi7esWeR+1/gfgfr0IVnJZSEkky42nWz+HTbIBVSupUkghwZzUTgkWGeFz4DjjEh0V7PJVwtFbLvEJB7WzibU+tECqmrXUlBuci+rQPLgPVsAZWIyanYvw/AvlOHSsXTI2SYqbUFqBGQiTxXYraWtWftjsz1PXgs2mRqpCGiiYV2YTMGMe5VeIhU6SKcPKwlUJ0NZ3/wn2rirJzTM3rEBmNkhTqAz4NI3KglA+GiJ5kmFp8pdi1WsF8B19GeOZH4W+y0Q63RcBMkUzUwlthWeW4HLqBDZ61sDRuxI2X7kWGaQZdR4aWG2hcIZYZR6NzNPmoSGwQHYT01sNu8rx5vHd6j+SF0AehQnkm6iATN/oKFiC+XauxTc3DqKpfSnsvko0+ItQ5ycJPU82EGc3a6WRVTPNI5sVR+5ombgkQJgLAXJ4DuxMgQVz9DjvVwtQ15eLOi+tZh7sg7nQDt75sAVyZMzuS4OP4Zm1C7Ar4gAnxY4nL0owKsg1CjhJQ6JDeNAYwY8Tn+Jl3yoZ/9tMrq2PueQFsDNwDsyTIZEMYHjjmE9WEPOU443k2hZoE2aIBQOuOS/TiLAyqOBvDpbDHVoEB33KwAKZkVg/9BDq98+FdXABbEPFeK49B62BJ/D0OguC720DR66lWAxKXstSA8QFyBK2zCoh3T1aVoJS9TIY7PHkoSEyTMPSNykAACAASURBVLUAWaUatHcyy6vh6AUG7nFcwI/j76KlYyWcfZWwc/BS2HJbILOQxPvHOMFGQpavFNXbS/DWt10SO0kXvnRoa/LgvjTNIY8BgRzZ+1ewfagFji52CDMPSl+NrU9z5GoM0yqTqsjiiEWYcgJuBke+EtTvLsHugw1SIIjhkvjetwKZqTaheGaYktEOZzmKzMBiVrB3LvUZGnYtQ2v4EdT05MMRIQeahJwF0rCpQDZ1ikl0LzHK52RVcbqoWlhmDdQqz9NRsXRHDCI8FdFFninC/jnOBckVK+8OlqK1fyn++lIuXgtZcSH6hZB2SODnccl1k4m6zDCpDIbkctnUyrao/cf2wLF3OV4eegLkCbAK6RoswPN998M+WCCDEXmcZkFMYBPEqrYj3cRca1pmubjuZqmbj5SQKoZroBSOgQI0hCh39gDqIw+gPjwXdf4FaB5Ygrr2CjzRmgf/+6+Jdl1CqKBjMoNbmxl4P7Ixyq0glp9JgM6KHi2uXrTiinAWu0hHUIdDEh1GOo5ATmTIC/8Zh7/eDse+CjSzE6S/FLaBUgPIPG245pqCEwamMANJTsuFPVyMht4SNO5ZjL9dOyK9hjJYnh6QkRK8jxaZfgzZauNJBlg3EPxoD+ztj8Hdv1wWlkdbQ+QhNAyQIzpfWlFmsgNhTkJdiAapsJWgqb0YLe0rcSlBnYvLSmynRZ7FaRW/i1xlaiuIZoUuJJ+jZdBs+u06TmKd51m4/Y/AEahA6/4KNPbnwBZYKIC0BdW9kFKwdGzMArJYNVpwpr/mGOkvFibokykzzT5QAOd+5pt5siwE/TaCie3pa0MrYd1ZjrrNS3B24kOQfjgeu4hkiuyzDOLjcbCWY0b24g+yT03CphGcHvsMzfuewsbAk2jxVwmfttG/EFY/A9Ai6dej9c1aYdU+0/emI35/STri901w56GRbtVAEeyDPKY5lfUBNIXmaEncX4zGjgr89cVS7D2wAVdTPyDKahgmMTp+WXLFmtfn+uulOf/sv83v0xjxInjNSzQxJLNBIKueBT/7bCDHOEMEo0jgDNoP1sG+rwg8Req8pAtzljd95NlApstqnkgEModFFotEVkvP47ia/hZpZisoyBcz4i4Ge8lphqXAxBST6aykjeLY+bfgbH8SLs9yyU7wSBQ20sADwg1gNC2l4FAxrOEciA8dWAh3uBiOnhLUbyvF8asHJJhg8MMP/gsgS5uMtqGz1Hm7gsgkzqPv/U2o3lmB5vByNA+US1s4W+ddEVOLzmSZ0SKXGhe7M5TnoH4mwUwiPHO2OlaMAVWtf66UnmnxyFijQJ47WAV7bxVs+5Zi9UvlODn6Li5Fv5W8bTIzjqQQG+gIGiA2NinXkfd1MkE+4RQod+U7uhWOPY+guXcp2kJV0nfGooRjIA/1/fPFqoqLRjKRWFuC1LikTUqLUDMnoHwmglmtNAfF8AiuD84XAUpmSFzUUiOFoLcSazaVof0gKY/somEcRJKWTkxnq5gCWUFqglUf6Xua3JjszyUDxftpWmMTtWlScbVx1fwW88qcg0LgTeM7vOp7As5uGoliVPepbooCmcaFXBRaZPNUomvFYhJrF0VYtTMX2yVdyu7vcaQ5pF0qwHR9yLWY1Ah1aoqRJRvCR3E5fQov+KqlY4THngL5ATQO3G/0Us0CciRXgRycD1fYAqenRDgBh77cjqiRT54BsjEeVywyaZuGhtudStQk/dfvWS68Y5u/GPWeBWgZLIBTkukGMOWmK5CVfMLo3xD7EPeC1TXmcDnkkcNW6IMpkCXgCOYKF7s5tBj2PgZGFbBuW4EjJzwYw4/gcTw8eU6VZ9jURxDzBKHkQTKJeJQD2tXbmE6mMZlhU+8Yfo59g3Vdz6Jxd6VyPQLFaGZ1rX8unIOm1eWGM8GpJBoBs/GZmMmQbEaAm9NoaJXPwG7jQtSRchtgAScXLZE8OPoWomF3DhpfK0Xg6CZM4GdMZa7LOcGM99jEuDCxYzEtWGUBbIKXTbwmnSALZk2jmu6EwTkWgTk60krJZUXX/BaLeuJbYxRnRt7Ehu6laGEa05+PWl8Rash9j9Aim0Cm+0X/33SteNqwlG7Bqp15OPjddpACSldF9qJRBRYg619VVGvINyk6Cu1H1susDMdMGVWB3GCUU02L3DCYj3oOBg/Ok+qZ01MEV3s5doatuJ74Tni9twey9pNlMr9NGrqQ+RadH6wTRXe7vxQ2fy6a6c8GmFkgOM1uDAZKpbAJ8YS9hvTjCRD6ySqKJ6AldVI4wOpS0C+mv8kZx07/EtTtrcBa718Q+GQ7eCJcmDwhBRoyym5cu6jRD3U7KHlgpC2SSRVqpNvM4HU8SaYsi0xXpY1sbd9TcPZUiXqpK1SAxv65UqiRgIb/5ikngbQZ2On4MwExPw+zEmSGCZgJ/DyJVeqCeaj2U7VSlYqcvoWwd+ZgU//D8L/djBjOIIkboLIQ27eiMZ1Oe/HSZQGzZCyMgUDKaFNWG09JXupDG8UNmlhBpkmcp0/KDc0ggX2PE0LmJ5CplmZUp6Ut7fDn29GyrxRr2RHiYzamHNXsQI8slCQC71E2c5EFsoOjyfwW1O4twsnoG1JbSKTHzWXX9KfkkenEi14pVWDIb1B5gKEvOuAg78JfrlQ7Ep0HHgCBXC+8gBLUs0NkqBiNg3lytDHKtzHf11uB5j0r8NPEh/IhuEul2DHjA7MYRqkADg9kB7MBZP7cpHEypZXOYDIzKmA4Pv4ObB2PoKV/hbTKO/tZ5uVxRBBqj5vwoyUPy4S6puCE2ypNndz5zN8SAGyq1VylgxYsxCyGBc2BKq1q7lyOwEfbMIWLGAOLBZMYnbwmHS9M+cQmKR4obeJIJNhqz94/WjHx0sRHJI+aejp01a7he3S82So5X9IxXf0WuCP5YA6epwI5IQQ0TwrZdJKhIJCZ5uTmLDE2J4FMDWvTMjNTYUF9P/sIS+DwFsO6Oxdru5fi6IndSOA0xuM/ikR5IhFHXERztHjD3pixiVGDjskMEi9NoZkg5r9vAjJv4k1ANmMaMsOmkMlMaLMxMSVpXT2hxlLn0L6/HrbduWgN5EtF1nWgCtV+Vl/ZcMsEgnkPeeJkqa8uciy8pbC3L5cOcOohJ4Vkpn9b4y3hWtBjTiKdoIgHpaG4/NM4M/ENnNQdmPGTSW6ZAyu1BtinF1mENb5iAXMNZzMLoPLQHCmGtT0HTXvL8MbxnZquSrHPLImJcSPS57Eco5/Bm091G075VJUc2eEEMxmCSWBiWitO47iMQ9940NzJPORytAVXoL67EM3hSplN7AgtQlOoFA2McAeKUBvOw+rAPKwOzIV1KA+N+y2g9arx5MLqJYVwEez9Jajp/gPWDlmEXfbXV+ZgQ99T+OLCfpB7MZHk4MaY5lhnKlz0F1VIhmkltgTxSgnBW1t/NMrXMm00zT61Gzg1/CF2DjWhcXc51gWX4IWDi7Gm40HprrGFyMHl6cG8vLoYTKVZ/QyCCuCMMDNB8RwCuQwNflbFqCW8SIg0ayMrYN1biqfXL8Ar/udxaoQ6fJcxHD1v5PHpHpgBHNecmWDtlVSwmj7wLNfiFxxyfc6Mjyx0A7W8UaoJyVk/iVRUK500SOxIpxG7kTmFtT0rUd8xF7bAQ2gIPCD8Yitz4gOqC9LAk3SgCg2RMtSF2Pw8RyinDT3zRe3V/+5mqUuMRkckWTQdm1TjYeaRkSK4YgJk3oDJGPtFkrgYPYMtQRfc3Q8LCZwE6PrgHPGHG9h4OVgBa6gCDcFFsPot0hLPbIIrUiiSRo0dRWh/24ZJnMaYDMqZAq2C+JaGk87dreXomAp9cGMzcDJObHnkMT3NIHRCpL32f9mJhh0P4/ltZWgLPgqntxJ2bxmafCWwegtR7c3Bmv4FqOGRdTAfdUM5qB3IQW0oF3VsZAyUwBksl5PG1leEjfur8OfN/4W/vHw/ut6x4ecoRT84oWoYsfiEdI8IG8/IgWv1irkWU6VIgcwSP9NP2gqftRYTkwpylv+PXzmMVwKrUbPNAuu+AmzYvxw2P90GEspL0OgvQL1vIUR1MrRQKoxm0YeujyNUImR94TkzhdVbjtrdxfjry7lo6Xwc73zfI4Lr7DCnjvMUK2pGWk3zwQQzN6Hqr2nTr1bGsn6yCeo7P/K16UZNM7ojclMTAItE/IHED7RHk/jo9ACcXVWw+RjPPICGEMvulFDIFzJWYz9V6svRNLAUdZEyMUJM97KA1ewthHVzMY798IYYFQrmcNtMJcZ1FLCcGlKi5rFu0O34hLiqUw5nLmHoWAfcnY/ATX2FIFMhpBsuRMOABXXhUjRyBwXL0BAogmuoWG4ACTDsGGnqKoG782GcT30m5erxBNvY00hx95pAThLI3DaUC1CyvaTgDCDzeTyiJqYpa8Uulhu4jlN4+5QHW4caYN1VhRbvEri8pWDRoW2wAs1DpZJ7rA3MRW1wrmy8uuA81Ady4Ahb0BJZJM91kBjUWYynX3oIG/ufxNun9+EavkIU2qkdox/GvW8GdSaQKZYoW11FEJkzphPB782cKqYLxUfKoySZRx3BCE7j8wtD2BqplUmz9fvKYPeoECIro65gkWj/2vsXosk/D42+OUJVdVCpM1wId6gYHMDDsQPV7flYvaMArb1PoPfoehwffhNT+FFK5xPsNBd5rZvby/QYJpjpRpg+cDaY+3vBTLxS7jbKXK5QNmmNKXGWRIZuDAepYwx7htbC0cWsE12GB1Af/AOaDxRrlijMeIFu1SI0RaoEV3U8lQYXwB3JhbuvCI4dSzCSPi2ZIMmIsCs7zYwXRS7NEjV7fGTWB8MUdkmInIr4dixXr+15Cs2+xXDK0JeFsIlbUYg1/kKQN0umltWfDypKis/nX4A2HoO9JajZVoq3T1IT7hLGkupesIooZwM/J10u6S1j7tEAsgkcgpkxBKs3wmGYwliaSjkXpWZ/cuIDeD54Ee72pajbnoea7QtlpvPaSBVaIuWiAO9kRYidzJxP4bPA7ilC/b58VG9bAOuOfLj2LUH48604OfG+vOY0LmM8c0V71SgrQ87BLFAyRciFo7vBjaUXc+FabueNJVjkd4z3n4ixU2YKk0kVjqHLcinzNfwfbkbTrpVo9a6EvacMDR2FsPVY0BpYhPUDFWij9fUVYG24FK0U8estRPXu+XjutXmo3W3B2sAj2P5GLb4bOyySV9O4gOvJM7gRPycsM263qej0DBFLTjouPS9JPCgl8+8F7+zn8/OOR5OI0epnYpK5YGI9E58SuQXSi67FzqJ171/R7FkCBrnknNQH7pcqqtW7AHamGlmqDpWiMVKOOopihgokL87NW7czBx2H7IjjCqaStMJK0Bemh2ii6Ea8D2S8kCggd4Guq4pOkclP6/dqsFqOBbuXkgCaDrENFmGNj34MO0mKUOtjpE3OhQ4/dIWKQIG/hj3l2D7UJPTQKYqqSEAgZUR1qbigJrdVgKxNjLPBk6b2WpxBITuyKe16HSOZC+JmkHZ6dvII3v7bduwaWoOWdpJiSvDsKzl4bkuOsMSe356P57cRvBY07iqXvrc9B2rwzokdODPxjgSSYxjGjSRlsZiCVOksbiA5OUwgC71Ue9VofckWoxNG4QBJN/Gz8Dnm881TReyDyg5cHT2HkeQlCSAncAknRz4UrYnN4Wfh2LMEz2/Kx6qXF2LNqzlY8+pCPP/KAvxp7f9g1cvz0bRzETZ6n0D7W014+/RenMN7mMD3ctrRAk9AyfV0F+LpaRG1YTqQG0suI9ctQJ4Vs6nvfGc3YjaAza8lGI9pdZa2lyk4ScPFx5GmxAIm8f7x/XDu+iPWBleg0UtKLQO7OajzkV6Qr0AOMmPDti/6x9pNbo8USul+1aYF+OJCUCqq49FRATJtoag8y6kyC8gZCuMlU7Jb40lSPGiVJ8WS+j/YBGfHMjR2F8NFVcQwq0glsEp5uhT1wQLU+uZLcr8hMB/kP5AGqSJ8y+DY+xjOTn8iFaXJ1LBYYDmxp7SgIEQUsWhaMcom2ulnpZCOx5COq4q8ak1EMZlmQyo1g0ek6BLHWYzjBK6mvsT3I0fw3g8e7P9yJ0KfbsHr3+4RKuhXV/bjp+kP5DmjMu/kByGk34jewGicuhnqRXA/T03EkJjSzoYZMIvqp0b2Yg1EUTklPiLla6XA9StAjk8ymFYXg41do9NUSaKbRL9/BLSk1/ANTt54Gx+d7scbX+7Bgc+24+Dn23Hoy534242D+GHsLZyPf4zr+AZjOCVdyGM4K7HHjehlTCQoC8ZGXqbWUpicGgdzxPJXbyEBzQDZALMGpncPZG5iHkLabDqFdGJMhwmBqpvD2BVqg7vjCbQElsDqYQNvjnBZ6nzz4R4sFvXRJiFqMYNRpBIUYSVO1Xda4NizFMP4BuPJC5iMjc9khmgfpN3KqDjeR59GNIxTKSSTaek1VKoeF/s6vr7yJjZ4noGts0I0zyjgYmfnRKQE9kH6oyyT5sDqn4v6/rmi88ujgr5ca2AFbHtX4MBX+2RT0JpOxzlsxghyjcVkC4y6FqofJh3VMlGJxRo1JanYNMZGb4ilYZcaF298ehwJDoUR7TYuHAVASMgfFsvNv8ev2f5DNX1efI50bgvri0UZ80YA09MZJGY1csaYZSFCSQ4XYoymqbiAQpyh0WaBKfuUrGshllkrJClxUVJIxhloMf2cENHusSiNxYSM6+UJyMrbJFuYcEUUleJCZeVJwc5uVuXYzqTi5GysnxI5BaUYxGJJjI9PIiPCe4RwGjeuXzWafrmuBKuhG6IfRwNByWbcPZB5H3j/qMxEBdVkYhSQNR7Gz6NfwLnjSbR6HofNWwZKizEbY6P6KDESpq4bKQa00qSskiRElmApGjwleH67Bd1H2jCBM4iyoJOieqvCR4GcdY/uI9lDNIxTKVE216bZNKIZWgxqEJzFtkgjXF0rhXtQ38dJT+QFF2sDI1vcB/IFxFb/HGmZp7ChlHr7F8Pd9wi2DTVKCxDb70cmr0hJUZAouWKjm4auhXQV8IgiA4fuTlTTOUSXKXlOklEsI6kdbgjiXPoOE0AiSUlZ1dXkqRJNJzCVpLVVh0F+xhVQHS4BrQjBaCZQfXddIdZWNaMvG0qjTmYkJGtB4M4GsWmRxUemiSJSqOdsXAQXX5fPY5jPv89vMeqnqnwqI8AmIOjY6HAE+p4GF8XYuDPut7F5eHrws6tJ1Nfn1/HpaaQ4M0I6OAgwim8zNWhmKLLp4HtzLbjWDLySYmD495JJ5tWZ+/8ZR7/zoG5rlfjz1j4LWg9VoNozVzgtDorRiAI9K6rzVehcdPAscIQrUN9djuc2FeOD0wFci50S48MPyrl9snZikfk5GLymMQNk9XuygQBzF+zhotxS5OOd0svn6FkKm6cMDraWS6RJQgd7zsxqlBYdtLxKovgiOD1LpZfvfOpTjGRYZVIJV/GDJeiYDWSSTyj3ysh32ph1R0Az6GKpKBtImSIuswso8j0JEA0smZaHAY7hI5qpPfP3DINvvLYJQqaSdCPJIzeWaP5qQCpG2gCT6VaIayEcBL4B4zPMvAbfP0FtNNia/qpRNBDcz3qvt/23+Xyz2GD64UbeXdeHn4HGgF3MLFJQhpZKTrxMjb27z1SY/jEfpYgi2y6N6ZjqWLM4FM1cQhw/YYu/Gi19K43JV6pVIYWPEJmHygZ0RwrgHshHHRslQlRnykOjrwx1eyvh3PuUdIwznUiZMJWrpbQEYyu1DbcAWdtFxF8yoloOmKGfzOPtuytHsaFnFZydK9HsXyqNk7UeHhFZIBPQfCNSapVGSrKYSmH3lKOpvQqvH98lHR8s2XKOBK2TtFkZ1k0rS6z2URf5ViDTOvKJMxVhDcTMKqD5aNxYE5ymP2j+W/xdPmf28/maNG1SijI3EYMWVu948Wu6X9qyJU/lnuLFtyTvn9kMDQSlc5h6DjLizPh9ATQ3x6zNaG4sY+Nxo81cZnbB2IAz35/9HJ4it/ssZtWUIBbDoe5UFsy0ztny82xw/j1f855RvDuWiiKRpIRwApTzonDKd1cOYW3Xo3Azzx8giDWI0/mM5FMokO39udJI3BggoYtAzoczsASrtpTDc3SruFkc2JQSw8aTMSWcll8AWY8cfijuUs0aEAC8MVRqJ3uNVnnXUKuoXjLtQ75DnTjuBDIJ47TKLK+Sw0A/xyi7BotEVMPtXYJ1fU9KlD2aZmOqKmHy9BNgsKQpVT5DC1kKCwQzLz7J9EFutsgzgZhYOloiw8Qb/qwUJ0S31zR3Nx0B+nwZ70XXxQAfp55yYOTMRSWk6ZneMFkb4+VMMOsm1Gqfjozg7xgTVAXQPF3Uqut7NFx/ySiY2sIGn8F4v9n3zn7HbM/jTBZixs8wNrd5WslnN3WpmYXJxhAEsnwWpsjEpTTv+935yCIyzqYnGiZKHlLCQbjHl+E5shbuzirJPJAQZUqCMcvFKib7FKX7vZ++Mrt9dAQFS/LuwEpUb12B49c/FhJbgu83RRzQ0FBmgLHKLRZZdIklqZwFMheL1lnGfhkTeI6eCMGx+3G4PStg86hesj1MrgPJHuwCNiSrQipZxTcuu4+8gv5KVG+14PNLIUyBSjYTyhTjCSjY4kLy7yuQ+Z5EC05Axq/pcvBm3pxKEksr5oog4WWCn8fqzdfsn+lzGRuoiIh5BHN8r15kh/E9EpC8+WSJGaeWYS1njn/ZhOb7nj3/hL9nXjoLRT+T+VkIYNIh6cPy57dexvsXwPG9aiyjr8E1Ues0427JyaKvyXUk15v5bimxS+pS+cKyLoaB4Gv9GlXz91tlZkkkASkZkmhcJ9Jei5/AC71/QouXPB1q2y0QOYk6CqKTn8O2uADTa/lojpSgSUZXzJMeTFe4DA1dVXgl5BDNJ2rtp+Qk44lm3GPJ3N8CZCb4tTpyM5AVzFT7YbA0jhs4g5e8NbB30k8uls5iW5AyUASzdiuQjEMRFxHji3AXklfLHrMS6UDePlgr1Se2+ku5WgIerTRpIGKSVEzyimYJWDFTMrfKCMwYXjr6MgGKR6hxGeDJ+oXqHxJU8j3zefJIi2VwDuSRX5uXjkZTZfbZlssoKhibXYMlYxMS7DJhSUWw9Xe1c0K/5vdZUTPWXKisZAAy0c+LLsBsN8D0bc1Hcn4VkHwkEDWwVKvN9yLBKLMIsy7JCPHEE2tP68GL1o0bgt+/S4tMAyNclGlEo1FMRZk5msTbX/rQvG8ZXD7tU6wfeAh1oiFIxSbliyuQC6TSytkgjjDpDfnSgLtqWzHePhXGNDv7+b7FpeTGpaFilzdHfPJ/PFSNYE8X1fwwNxckBMxI4cY0RUyuIPjxNri7V4o2wvrXSWBhMyfplCSFc+5ekejDKZDZfZ2Lpgid93ysD69AzaslODv2oeQXuXsZfWpaKAtgLraAVtppmJbT1BxvhvaDaa+Yfq1VNi0Rs0xsgFIqPiaAZj2Ker4+T3+HZU6Wx1lZNK9fTlEV//e2N5sLqYtpAiL7/s33bLym9MOQp6FleRYvdHazuREJaoLWBKyO+mLVLHupgLq4hJKJ4CbTbARvKvO6TIzMvsyAlAZAGhjkONGI8V6BHCfnIRNFNEpwZTCdGcGuQBvaepfDxYRA5AFQ2074LpEi1AeV+GQCmaV5O0/tgXy07i9CbVcO7F0rcCFzUrLtLH5ogM73SxfNmBsjQSaBrJvwvtlAlhyk6XuZwQiAsRjHHVzDyfGj2BT5C1zeMjQPELzzDCCz8ZO0SLLh2DViEQVPa8Rog/LnoDVYhZotxRj8cId0WnB4oQKZvqF5M7KW13R7+SjWRWj/WopQINB/1/KwzqumT0/gaDv67N/Pfs36EwunevFrvrb5c+HRyt/j3zQDOU02sPFS/XhaXQakPOq1s0U2vGGhzdMiGwjqa8nfMlro9f2b3TGzrTRPIC0MEZTma93+UUvmvIfc6Ob7J4hZNubFoZnCDTb8er5XdUfo05n55bu1yAkkRJUojgSLV8jg+JljWLfreazzrUAzZYkH/ge1Q/+DGmoICpApTVAmeh+iVOUrEUoBW9c4+XXVnrnwf/kCxnFFlFZEqEiyMgQyY6sxI0/NAtBsIBvHEa0Jd6dG1tk0EcHGLOxIii98HnsPO6Vu3uTJkSmUKo7CDAU5wJR7oookFYryIUCOsAVnIRp78uDuWoKXelYbInyTKrAtx1v2iDNvmgKYINCOXUKWBWEFLx/5P9UTM2/gDPjMbMKvPM5+rjzfBKzx3JkCxy2/K8CSgNQAsgSkvwPIfJ1Zm1Gb6PnO6b8SxNnNa372v+vR4BHriZUt0MjUVwPEvwCygFmDYwaSeqKYJwvjFtOFM1JsMzzlWS6fkX4jj4R3aDqpJ13g8F40bVkJd18Z3DRkA39A3ZBa5LpwkZDM2CDAibnO/kLQIq+n7G/XHNh9hXh+Rx5OJd4GKQ1jiSnJWkpfqdSlafzUImslczaQDewSyOo3kXvBiykvTtcUw4nhaU7jGcUPkx/JwMRWCqb0UZeBINbODA6XJBuOVllGCBhtLE3B+SLC5+wug3VrJd7/PiBcCZk8mppGMsExWNnhgqwXTEdpN2lB+T+TpEPqJAeCq/Wh1dObbi78P+LRfE3zUV/TdBs0ODJ94qxLdjMY+Ds3/77pbmiGg5aXoDB/37SIJpj+nkf+7u/bDHKL6V5Idmp2NiTr94vXYW5iunPiBnHdlSSlG1BJXtyg3DDDk2NSdTw/9TXqNlViY2AlGnvmwj3IXs+HjGYMZrTMcXecbU4NDwtInG/05sDpK8Vzm3PxgneVcHPGM9cQF9fJKPjIgjJQ1jhENy7XWdfuPqaQ+OYVyHSmJ/RihCjno1ahJuP8CFFcTp3EroMO2NrL4fapWPUvgVwi6RZSPu2DC2H1UYSvAG2BCiH17Bi04VLyOxEPZHCVZg6Xi0ImVdTgfCRY49JgjSxZOAAAFPdJREFUU/1Z0iV5HPMYNd6aAZYsyExA/Ofx966Jdk3/NpAVxDohlmQpOngq1qLp/Im00hk877yM9Zzp0p2HtiGS5qmDQurvAknLNoqaq6opie4dGZX9OXAHi2DvWYSareX45KdBjOCcbAwtSZupRzOgVddLXchbgEy88oMzmT+TyJdqmibryIfnMTyFSVBN8djFQTj2LhEVHWlOFavMudXkXtC9UJFmCtA1UqoqOA/OYJ5QFJ0dVah5pRLHzu8XSmY8M44Umzl5/MZSmJqk/ynZHOlY0TQSF49HV1RTggaQuUnVyvwHuL8XuL/+PJ4AvwJmCbBNN4j3gBeDYwbcBibSwvrAmbEv4NjxODYNPIn6zoVo22+BQywyhX0WigCmFkPY6q8iNGwyZf/eiweXC0ORE7gm8ROuJzhOjWPH6HL+TiCbPqEGMiaQSbZnWdUAMnPRJLsItfmKMLCYSnN2VsDpL1HpLAn2SmaArJmLXFT7H0TLoSJRXrR7CvBi5FGsebUYnUfahEcby9zQQY5GqxM9GoJagM2h4ZKu0ulQ7MCQI9kMhGZSYP8B8q8D9Pesy2z3ZhaY5bTTANck4c+kDkXbgkBOyWgMkpoiH+9Bc8cf4e6l3l0RrN65cO7n9Nz5qh3IGYJsspXxHSp9QCC7A2XYOPAIVr1qwWeXIpjCBZCWOim9kKa2tmZb1J+/jUVmhCsBkIR0TM6zJGv6yFkiCucyi0JB+orMgHr/+16425fB7aO/Q4VO+j8EMptSmbkolCR4dWAeHAcKhObZ5MtDW2gJWvqWwdm+Ap+dp5DeNTCFEzfScRKKGkBOJTQAlewAgysJsAziC0EsQKY1+T037D/P+eU6mb4619QEtPrnzG6o22EWblTLQv1rLUzROnO4zbnEl3ihbzU2Bp6W8cbuUClqPHPQNGBonkRypKag8wNZDdaZKqzuNfdXoXZHKTZHajAqEr/nwTkjdCGZCdH3YbwXuc98n0Z2Rwa/6329j4pZSj3QnKyWWEmYIcnFSNUwjcOiCqmTCXY6XMW15DfYNVSPZm+5oUWgclUEs5mCs0YK0LS/EM/7qEKZK/1ZtV0LsXFwJep2F2HP600YTZ0WwY1YcgIJDnghOKVKdbOTr4GokcQ3xsP+B8j3ujkJCFV84qNqWWhKTvPNZqpu1iMzHkaFlcE6pX9Dx7bAvm8lSCrjMMp6b75MxK0NzpfMFbNX0nkvBTJjMFBIhwnZOivx/KZyfHqBKvwXJKEwGqf4JYcTGXP+zE0lm+12QJY6CQuNdOGF/GjkSRkFahGICJaO2BSzCOyyviFyWB+f8aOlbwmcforw0cXQFBzLkEzB1bER9WAJOP9OBktyGKInB80ckt1jgXPfEnxx9oDklVPk5TK5zl1nbiDzUSJWHgm8mE/M7tRbixG/tDr3erP///v7dCc1K0HXjW4b4xP6pVxjIwVrELFmCFdiZJi6o5zPCH6MfYC13ifg6FmChu5Saext6C8U4ZjqwHzUib42RXwoFG+oI1FEMrgQbn+xyNzuOdBKCRfp1omzDMLSOfeOsWHUKuvprMWfX7PIUmRkgSBbbJDdKU62usomoKenWVcnT5adwSO4kf4ObT2P6IQiXzkchoiI9PEZQGZbvu1AESjWXO2Zi3WHKtDg1Ui1cV8R+t99CcOJUyIiMp3mkEKulLHreVQImLlwXNwskJnfotX4D3DvfqMpkM1gjkAmv4NHL9eZOTiDkPQLtiBVldjqdQVvnNgB674iOH0VaIlUobo7B64D5VjtmYfaMKeBmSPGqO5ETg6F2XVkBk/zuleW4Pjld6XgRirERJIkJ2B0nO9FXRgBspTXsxVgvncWj8z7fx/3orY2SVLFGATIX9BytUmBlEfxSVkeYWmVWnEX8dX1EBydVWj2LoPdUwEbtRbCi9AYLhLxlrpIvjGnTwcjkiFHkhE5GvSv615ZhJNXj2A0wy7Z66rDIDuHHBHDKgiYeUKYYOZC8wg0/brsBzI/2H8e77wm5LAoMYxmjPdUiUtCsOJa0xongeiIAWqOcuNcEWG8DWMcp9DWS75xqXEis7pLmoLybXjvCWbHwSKs6rkfthBBXIAWGWNRCOtOC/reegnXE2ele4fdMrzVcWZjhb4wOw4iJjWHLKy7W4GsltgEsSbpJYNB/oBp2s1ytQCZLfx8QRYpbmAE36LrXbdMI232rkBTbxnswTLYIyWwUmhDKnzGfOUwGXIkEikZn4o7nLC0LViHcXwv8zeo0SwE0lhMa+wCYi4ow2gDyDPVwNlByp1v3H/AffMasZggpW0JrWjSyNYjh9oI9mkviFtimprmMZaokhiPXhJ95YH3t6DFs3hGr426dMo7tsAaKYQYsXAOnvc8hLZDZdKz1zZQDqenGLZOC+pfW4STV46KwA31L+jaStmZIDYOYY2DTMyZPBP69VoEMu/pfQphJrhng5gf2MgtCtEkG8HqL9ISMjhUq3xy7G20djyFtj6OwiqXWRX1vlzp5zOHhAutU4CsSjrkMVP2qtVbhVUv5eGTcz5RUR9JnVM/PBG7xVdWv4zuhVndYSouG23ffJPMD/ifx9uvi0kyEo6KDJE3gZxNv7LIywMyOkkw8UsWPy7j4tTnaN5Ft3LRDPuRSkms3nGwqGStwvmwU+GJwz2HimDz5okGiaunHM+/mgvPO22YxM/CXJyMjUp+mgkrFuiYfmU9QesEqo6kxCmCeTYbUT/ffUovNKiFM0e1pmAUzBol8hjXo9w8zrk3yX4YEXmp8Ifb0bhtGTYGH4PTWwpr30Kwd6+R+UOZaW1qnKlcKN0L8jRaab07S7G293Fcw5e4kjgpdXa+diKhUaucNww+Zkjj5Cgo2eY/QL49UO+0iWeALB4c1Tk4gJINAVQLYh0hDZloEAcmJ/nzFG7Ez8vE2L631sG2qwIu1hFELq1A536wGEYwy4D4fNilwpePBs98NAdKxHDZdpXDtWu5aGhPpS8iGh/FdJQcCgUvEwtmLUExyHqCyQC8DZA1N2tGqwTpLSA2+LVKGzRZalw8xgNpTMbZBTyKy/HvsHbfn7HO8wis7Xlwc3xukKKBRncsh7Mbo8N4BInaeiAfLZH/r71rf2oqPcP+U53p7tRaxRXEKAqICqJLd93ubmtdlUsEAoRwkZtWXS94ARHkFkIIN0XA667dztTtZYc6dB3HeiuigJAQcpKcPJ3n/XKQse44G/ihdvMDgqMJOed7v/e83/s+lw0odVJWfx0ujZySIYn4c+huBASeGK7V5XNxZ6p2kZy2+fP85ot8Qd+24P+v/y7nuTD3kNM6nn1UIBOmoOg7PPdR41IJ91D1eQx/GxtA6YUPUda+TfxPlK4z13fj/ByBgUwBSdpM5Hd+gDKqPNk34WBrOvKOp2DgW3qxUJvupfpdUhQr5gz3EAOZlaQkKmIu5nHYBpHWSKjhjKzYEuzPMvuxrWUEMv+DsRMI5jYwskZaVwfbOU2HL8TMPIHb/3Qg61iCMANKxNNDaRcrBUxeKDWL2aZTugUE5Jf0xWNfw/uo7tsh0voPA5TYGsfkHJWJjDqIn8lAYvGUrVBwLItUPR8N4kg2mxHIAqkRzqFvQSBzlqBwL6xbee6joYQHT1Ddugc1zo9QQmN40TLmpI4UJjUQy+vaKHQ3zg7IrKdDbWVvIkpbE7H3UCzOdtPfb1TkvfiuQoUP43qI95dCeT6QjRhk/Bkx+N/MlmVCH+EWkIOUMddm4ISzXxj8rbhfsyLUpwptVcsESDYA4AnRTuwBvnTuQVVnKoqIaBI+HxnW1L5QyCdiUQ0hblGa6YnB3qaf4fBgOvadMMHxpxN4qo3KdGcuSGwFR5IKHMLfy+BVgE4F5YwGcuSbWALZINEK3loFcoh8RZ08xYDUq0S4EWUxoT/DrXvd2HM4ARVd22FpY3nIIFZ4dAYyobwSyCQgu3iopw/jGtjs8bA2JsB8dBP+8rBbbCy8+rjI0VKXIej1QaeQHAOZNTKDShhEbCwwkRosGf7MQOZ1qwTHn5dJLST9Wba33hDI88qNYVqQ1KbMlCG5SL5UEHSYFS2DB95rKDiTiNL2RNjECFH1DnkQUJrEiSDcU76cPAisROXQJmQ2rEaVaxcyj23DnUdD8FHGapauUCwfFn5oPlJ4cW+ulSLJTD/d17yCmzJx8RC9kPAr+HQSK7wzgrKZwmMU1/0W5faPkde8HiU91GpmgmLbjUFMCTXFmDa6U1Z6HTatQrk9CdnH4uG4UYUpfVTMI7XgdPj3hQcwDF4e8DSFhFSBbGRkg+LF0oJVwcKYEF0LdYhTRMjXdzeDhm/ELwbP612CEPw+tYW04Et4Q0+FKT1w5yQstcmo6doBa6tJVBh5uKMipqWbHsubkNNJ0boUmO0mWDoSYGlLQrkjA/uPJeGo/YDozlHpiEaWvDo/1eH5fJPZpUZzYzXL5uNPLur1zx79+9vvC2+oF35tSkUPsQ1zPPwszIp8AhKL/gRdfzyFgrp08VehuWZRN+cFW2DuSkGuKxm2wVTkdm/A/vYYFNJWojMOhe3xqOjciqJzm1FSm4HJwD/gCz0TQyE6oipiMUvaV0lUYArz2TYcg3JeYvy9HoNqnZe9/WJ/OCBkx7IEEfN0TmQ48RvH/YnbaBwohpWunB1bkX9xDXIJIukinG8tcpzsLychvycFBa4k2Hq2oMCeiGL7VpS27RSt3747FAmnxCtdiEgr4lY1Jn38zu48+53RQI54Dfl01ScR8L8QF1EZSzMvsX9MkVafH36dRuvPMDJ2BZXNn6KiMwNWx2ZYe5JENs1M8fFLqch0mJBFHxY6ZPXSx3udWGQUtSagoj0dXxw04fsX1+HRH0q1HdR88M1yXV+VBxFfB0uLxbxYOH5Ez4nlaxB+fRZe/YWAP74etcNyKhVVHTtQ3pkMG9nUQkaNg9kZi+xOBnQ88unM1EP/uLXSsqvsTUN+QxJsDRm457kpIn/UQ/MGphGkpzFJXPII0qHPUe8gGsgRryEJt/oMgiG3MLKpTSfZmO24sGMpTYC8uI+TrhwUNW5DQVsibH3JyOpYDbMrFtn0xxtIRA4dV10foPgKfRnXKBing/K3qfi8IgbtNyrF+ZQOqJwM+mbnZNCyVDCDxQWyUZTzOwM6EIBbo6fatLTjOm8fRf7pzahwpMHmSEBe+2pRYacnnJnKnd2xOCD+fb9CYR/1v2JQ7FoHmyMRtpZUnBu0wIP7Ip06K8qbc6qTQVUbwZWyLPrhJ0bEC/wTeU85KIdVPP3BgFiJcSDBPDEXICOHtfET3Bi9iLyzKajpz0Bue7yYhGa7YpDdswrm7hiYqXncEwPrZSYlZXaf1xaLqt7tMJ9JgOV0moiovwzdF6Sjnzax/EWcGBvT4kXe80UHMg1A5QNxJj8H+AJERdFSZwJj+giOd2WjoD4FOfVxMtkpcMQityMG+V20m41BpuM95PUtx4Hu95HXvRy5jl8Km6SqJw3ZtQm4fq8R47gr7zcdnMQcqed+HzzeWbkX0WCNfCPzEK0RbxGu2IzS2K158NL/XBg8D7zfoLxpF0rt24Uoaru8EV+0/wL5g2uxz7Uclv5VyLL/HAU9K1HU8wGyW1egoCMeB13bUNKWht/XmPDdiwGM63elRcte9fhzdisAz7QySVqKNVx0IJPVz8cRcfGU5OUAzq35MKNT+/c5Rl5cRUXzp8iuXY/K7jRYWtYip2klSnsTRG7rgHMliq/EIcvxHvJdK2Cl33VbDMqcySi8kIKK5s/w92fD8l7ToQnMBGguQzsDwvzZaFmaGmspbua79h68d15a7IYDmQHtDQYwq1O6loqaj9FyrRr5Z7aipvfXMLeshbVvIyz9JuReNiGHXte9MbA4V6Csn4CgOFja4lHT/yHK23did7UJF4YrpJs17r8vClM+3Quf5ofPG1RKqv8LGVln1Eq9qhoIHM5wHu/RdHhDRJZOw43H6P3zWQlmW1MaipqSYG3ZhHJnCspcKbC6ksRLuZAUmM610uGwtptQ2JSAQ52fwFa3C45bteCNoHMd6Va84WS1UJQ8GsiLycjKXEum/ywNdRrbKJktPybx1weDKK79GFVtn8DWmopiRwry7BtRdmWHdJ0sPcnIs8eiyB6H4g5lFlrekS4GSvm1O1HTnI2n/hFM46mQSSc84/D4KEsGTE/RBpmTu6VJRIvKyMxA7FzQJ0MjMooOP3PALAnYlNHQSVYdx7g+isYrVdh9cAMKzmxDSVM6Mo+bYDm/BXkNadj9pQlFLWnIOmNC5qlYWBs3Y/+ReBSdTofl2EfYX5KBS7ccEsicInrJ5QuP45fqRrxr2XRpPi91pheKfyshQtpcPHw+gurabOwvS4H19E7sO7JeVFXN57fgdyc3YG/9FuytS4b5/Ebk1q1H5sl1yD+3FWVNv8HnpYnIO/IZvp/4VlT5Z/QJKTZJ79eCfvg0RTb2erxL1jpdZCATYK0wrErkT42tOW2UjCkwFLeosI/8+2s4bp5CfX85mq9Vo+3WIVwYrkLD0BE0DB3FhaFDaByuQNNwGS4OlaJ58CBaBw6h/fIJXHSexNCtPoy9eCoSAdzRND/kVzSQI8/I7Bhosxp0JiGSN5mayczUPfju7ldocR6F/dIRtA1UoXmwHI3D5WgYrkT91RrUDR9B3dXDaLpZhfohGxqvVqLl+lGc7/8DGvtO4pu7N8Jq/ATgsxdN7LOCGSig15v7wZFu0MUFMqkxUArlaoSobGyNGT6DWUiEYhcwJVICLDXo8sQvaiVTqM4r0MCXAqz3gSLRTxGAwrzqRNcFJsUZSR11VSoOsazQ2LVYmkdTpDfwXX4dhxBGaUjpfM09i5DGQw9lYt3wak8QwhiCoqD6CD5ZuzFBJ/JZSx+XSTzCFP4VXssJsZF4GZiAJ8iuB6lxSo9O4OSyVtwoxoDNwO1EvhmN+7/IQOZsnvQkDi0oZkePB2Ijwpk5xPGmG27/DDxBwj3pN8fAnYY7NMVu4iuxPYHTE+ZPRccZYaBQ0G/ONwPN5wUZ1UFNh+bVEGS/kx59mtI9MC4m+v3HBYTAcqk0r2BmatHYp+ffRfOY0Eq1vkHQlF35mHDdKFmoOCVMQ/Qvd0sp6RXChfJ4kbcKx4LsGcEXv0IwEoqrsvOP+9xvWudlAgKN/hG9A+/4HYgG8ju+gNGPr+7AfwA9CZIW3u95JwAAAABJRU5ErkJggg==;" vertex="1" parent="1">
          <mxGeometry x="744" y="196" width="55.69" height="51" as="geometry" />
        </mxCell>
        <mxCell id="3MpuOHCQct3RwVD4o1ZD-19" value="" style="outlineConnect=0;dashed=0;verticalLabelPosition=bottom;verticalAlign=top;align=center;html=1;shape=mxgraph.aws3.efs_share;fillColor=#E05243;gradientColor=none;" vertex="1" parent="1">
          <mxGeometry x="405" y="466" width="57" height="61" as="geometry" />
        </mxCell>
        <mxCell id="3MpuOHCQct3RwVD4o1ZD-22" value="" style="outlineConnect=0;dashed=0;verticalLabelPosition=bottom;verticalAlign=top;align=center;html=1;shape=mxgraph.aws3.rds;fillColor=#2E73B8;gradientColor=none;" vertex="1" parent="1">
          <mxGeometry x="156" y="476" width="49" height="61" as="geometry" />
        </mxCell>
        <mxCell id="3MpuOHCQct3RwVD4o1ZD-27" value="Amazon ECS" style="outlineConnect=0;fontColor=#232F3E;gradientColor=none;strokeColor=#ffffff;fillColor=#232F3E;dashed=0;verticalLabelPosition=middle;verticalAlign=bottom;align=center;html=1;whiteSpace=wrap;fontSize=10;fontStyle=1;spacing=3;shape=mxgraph.aws4.productIcon;prIcon=mxgraph.aws4.ecs;" vertex="1" parent="1">
          <mxGeometry x="63" y="142" width="80" height="100" as="geometry" />
        </mxCell>
      </root>
    </mxGraphModel>
  </diagram>
  <diagram id="BfICnEzQOR9folVElhpu" name="Page-2">
    <mxGraphModel dx="1422" dy="772" grid="0" gridSize="10" guides="1" tooltips="1" connect="1" arrows="1" fold="1" page="1" pageScale="1" pageWidth="850" pageHeight="1100" math="0" shadow="0">
      <root>
        <mxCell id="5vP34YTqh4_TRfMBcgiO-0" />
        <mxCell id="5vP34YTqh4_TRfMBcgiO-1" parent="5vP34YTqh4_TRfMBcgiO-0" />
        <mxCell id="1UKz5g6THzgxB4cBDnT6-0" style="edgeStyle=orthogonalEdgeStyle;rounded=0;orthogonalLoop=1;jettySize=auto;html=1;entryX=-0.003;entryY=0.464;entryDx=0;entryDy=0;entryPerimeter=0;" edge="1" parent="5vP34YTqh4_TRfMBcgiO-1" source="1UKz5g6THzgxB4cBDnT6-4" target="1UKz5g6THzgxB4cBDnT6-14">
          <mxGeometry relative="1" as="geometry" />
        </mxCell>
        <mxCell id="1UKz5g6THzgxB4cBDnT6-1" value="Sends a job &lt;br&gt;request to AWS" style="edgeLabel;html=1;align=center;verticalAlign=middle;resizable=0;points=[];" vertex="1" connectable="0" parent="1UKz5g6THzgxB4cBDnT6-0">
          <mxGeometry x="-0.2833" y="2" relative="1" as="geometry">
            <mxPoint x="16" as="offset" />
          </mxGeometry>
        </mxCell>
        <mxCell id="1UKz5g6THzgxB4cBDnT6-2" value="" style="edgeStyle=orthogonalEdgeStyle;rounded=0;orthogonalLoop=1;jettySize=auto;html=1;" edge="1" parent="5vP34YTqh4_TRfMBcgiO-1">
          <mxGeometry relative="1" as="geometry">
            <mxPoint x="209" y="170" as="sourcePoint" />
            <mxPoint x="83" y="170" as="targetPoint" />
          </mxGeometry>
        </mxCell>
        <mxCell id="1UKz5g6THzgxB4cBDnT6-3" value="Notify caller" style="edgeLabel;html=1;align=center;verticalAlign=middle;resizable=0;points=[];" vertex="1" connectable="0" parent="1UKz5g6THzgxB4cBDnT6-2">
          <mxGeometry x="-0.2545" relative="1" as="geometry">
            <mxPoint x="-17" as="offset" />
          </mxGeometry>
        </mxCell>
        <mxCell id="1UKz5g6THzgxB4cBDnT6-4" value="&lt;font style=&quot;font-size: 12px&quot; face=&quot;Verdana&quot;&gt;Job Publisher&lt;/font&gt;" style="fillColor=#c0f5a9;dashed=0;outlineConnect=0;strokeWidth=2;html=1;align=center;fontSize=8;verticalLabelPosition=bottom;verticalAlign=top;shape=mxgraph.eip.message_dispatcher;" vertex="1" parent="5vP34YTqh4_TRfMBcgiO-1">
          <mxGeometry x="209" y="130" width="80" height="50" as="geometry" />
        </mxCell>
        <mxCell id="1UKz5g6THzgxB4cBDnT6-5" value="" style="edgeStyle=orthogonalEdgeStyle;rounded=0;orthogonalLoop=1;jettySize=auto;html=1;entryX=0;entryY=0.5;entryDx=0;entryDy=0;entryPerimeter=0;" edge="1" parent="5vP34YTqh4_TRfMBcgiO-1">
          <mxGeometry relative="1" as="geometry">
            <mxPoint x="81" y="145" as="sourcePoint" />
            <mxPoint x="209" y="145" as="targetPoint" />
            <Array as="points" />
          </mxGeometry>
        </mxCell>
        <mxCell id="1UKz5g6THzgxB4cBDnT6-6" value="Start the job" style="edgeLabel;html=1;align=center;verticalAlign=middle;resizable=0;points=[];" vertex="1" connectable="0" parent="1UKz5g6THzgxB4cBDnT6-5">
          <mxGeometry x="-0.2727" relative="1" as="geometry">
            <mxPoint x="11" as="offset" />
          </mxGeometry>
        </mxCell>
        <mxCell id="1UKz5g6THzgxB4cBDnT6-7" value="Control-M" style="shape=image;verticalLabelPosition=bottom;labelBackgroundColor=#ffffff;verticalAlign=top;aspect=fixed;imageAspect=0;image=data:image/png,iVBORw0KGgoAAAANSUhEUgAAACIAAAAiCAYAAAA6RwvCAAAHQUlEQVRYCc2YaWxU1xmG+dMEqariEoqSNqVLqgQIaau0eKtU0U1UVSUqIhIW4xAwAZJAaEoMZmtKwpKUPcEmEGxqW8aIxWCMsQHjMGB77LFnPItnxp7V45m5dxbPeF8GpKe6F0wwc6fpP/jx6mzv9533fuc75557J6SmppKSkoJUzpo1S66PtaW+tLS0+33JyckJ6w/6Gas/7Gesf8xncvLX802QOidkWx4pZA2PjRApfI86ItISTXgchKSkJCsLyToj4OsZZSR2h5HY7f+J4W8YH7Mfjt3BLA7z14KuuBWQI6KUI77oCHfu3EmInoFh9l61sPa0jsxCDaUtnoTch/04Q0NxQlJTU5ggbamHc2RgeJTbt28nxLGbHUzZWs2kzVUkbapizpEGegZHGBgaYcO5FmrbRUZjMUX73sHRuPkS5kj/0AixWIzY6Cijw8N361I7FqNvcIjss1p+vP0qRU2dzM9XM21nDaUaN3/LUzFp02We2VrF6lItjkDvOFvJPto/EidEzhHpkHo4Ij39QwwNDCAUfkpw77v06esYHhrC4g2zrFDN8x9WMW3HNTSuENfNXibnVDI5p4KkDRVknzew+EQjk3Iu8a/KNoaHR8ahuzd+adLT01A80CK9A0QsOoTMlxFfnYq45CVCx7fjE4OsOtnMnMMqTje7kHh9/YN0+CPk3uhg43k94Z5+3vxPA0nZF7nY6mFwcGgcQtGBuAdPS0tVFtLd00d3ax3i4umE96wmvDuLQOZMxLV/IKKqoC8oMDAwoAiXEGb2vhqSPrhAbVsXla1uuezr75f5wUhfnBB5aZSSNdgdJaS9dVfIiZ30BANENdcJ7c5CzHyZwJbXCKvK6YlE6O3tHYdQpIeDV9uYsuECUzeVM+kf53h2oyTKI/PEcM//L0QMRwh1mBAyZhD4KJNIKEgkGiUieOk+fRhx4YuIGS8RKNhBJBRADIXvjkucaJRgOMJbhfUsLahjTYmayevPsexEHZFIFH8oqixE6WT1BUKEu7sRj26TJxR2LCfYeJ2Q4JP7w3Yzwub5CPOmEizPZ3tZE28V3MTovDfe3S3zPEKA/OsGpqw/Q+quSto9Al1iOE6IvH2VlsYrBAgEgwT9PoJVJwm89yeEJTMRdq/Ee6uazvzd+N7+LeLyXyPWX+Fyi40Z287zl/3ViIGgbCvZbyy9xTPvn2LaljLyaw34BJFOXyBOiJys6enpcQMen4gg3INfQLRZCErRmf9ThIUvIkjl3+cgaFQIfj9+v8jaohskrSlB2+6+b7vki2tM33wWtdmJzy/I/a4uMW6+hOeIy+PD5/PL8Hq68LTU48zbhm/hdMSsZMQFL+DLnov3xiW8Hg+dHi+rjtfw3TVFtFic920X51bzQs4pLqrNMkfyaXf7FISkKL/07C4PHk8XbpcT59HtdGWlIGTMxHv8Y7qaVPiqTyHkzEN44xd0XSrmWLWGH6wrJDOvCnfnXVvJ/kBFE99fV8zU94v5oKgWu7MTq70zTkjCi1GHw43L7ca2fz3Ca8/j27oAt+YmLrsdl8uNo82AY9PrCPN+SFfJQTYW15LxeSV6i00elzgSbA4XxbU6nn6ngF9uLqXJ2I65w6UsRClZLTYH9uZ6vIum4926AIfVjMPpxKbTYDu+i87FM/G/+Ss8uVtwWC0YrTZsDofMkXhSOyu3gkUHL7Ast4KnVh4j47MKmWO02pWFKF0DTJLjmgqERdPozN2C1WTAWrgP95o/4suYiWfvOuw3LtNhtdJhs42DydLOe19e5jtZeTz7zpd8e3keT6/8gmq1Xua1tnXECZE3jFJEDOZ22q+Wy0KcH6/Avn4u/td/hm9FKraq01hNRizWdkXcbDHySk4RE5d+zlV1Kxdv6ahu0GG+x9eZrHFCZA1KQlpNFqyqKwiZP8f/6o/wZSXjOrCehlt1LN53lj9/VMKhsq9o0Zto1psovdbAh8XVrM4tp15rYP6es0x84xBHylWYLZZxaDGY44TINwAlIS36NkxGI/ayAhz5n2D+qhqj0URds56NJ6r4yZqjPLc6jzM1anaVXiNp2SGeXHKAJzL28/t/FvFKdoHcfvdIOUZT2zg069vihMinu5IQjc6A3mCUYdDr79elPm2rgbePlPO9rEMcOFPD77YV8tyqwxy7qGL2tiKezNjHxIx9zN1ZgqpRO85Wsm/SmeKEyBFRetc0trTSqjckxL9P1/DU0gM8sWgP31q0h9QNx6nX6GjU6lnxWRlHztfSotMr2qu1hjghCc+RMpUera41IdTNOnmyT0uvsLngEkWVNxJyH/ZzslYfJ0TeNUoRmX2wjcqbOho0WhqbdQmh1uioa9Ki/gae5EPyVVKjZ8Yn8cl6NyLSffERf/vKeZr2uAhJkT5uHnFE5F3zWEREusUnpyQzBklUalqqDLku/ahJ//pHjfQjR0os6QmkdZUSXao/WEr1BzHGHeNJKyD5Sf9N+v25pPn/Czo9Ks4X6cAgAAAAAElFTkSuQmCC;" vertex="1" parent="5vP34YTqh4_TRfMBcgiO-1">
          <mxGeometry x="34" y="130" width="50" height="50" as="geometry" />
        </mxCell>
        <mxCell id="1UKz5g6THzgxB4cBDnT6-8" value="" style="edgeStyle=orthogonalEdgeStyle;rounded=0;orthogonalLoop=1;jettySize=auto;html=1;" edge="1" parent="5vP34YTqh4_TRfMBcgiO-1" source="1UKz5g6THzgxB4cBDnT6-10" target="1UKz5g6THzgxB4cBDnT6-13">
          <mxGeometry relative="1" as="geometry" />
        </mxCell>
        <mxCell id="1UKz5g6THzgxB4cBDnT6-9" value="Spin up task &lt;br&gt;on demand" style="edgeLabel;html=1;align=center;verticalAlign=middle;resizable=0;points=[];" vertex="1" connectable="0" parent="1UKz5g6THzgxB4cBDnT6-8">
          <mxGeometry x="-0.1863" y="-1" relative="1" as="geometry">
            <mxPoint x="5" as="offset" />
          </mxGeometry>
        </mxCell>
        <mxCell id="1UKz5g6THzgxB4cBDnT6-10" value="&lt;font face=&quot;Verdana&quot; style=&quot;font-size: 12px ; font-weight: normal&quot;&gt;ECS&lt;/font&gt;" style="outlineConnect=0;fontColor=#232F3E;gradientColor=none;strokeColor=#ffffff;fillColor=#232F3E;dashed=0;verticalLabelPosition=middle;verticalAlign=bottom;align=center;html=1;whiteSpace=wrap;fontSize=10;fontStyle=1;spacing=3;shape=mxgraph.aws4.productIcon;prIcon=mxgraph.aws4.ecs;" vertex="1" parent="5vP34YTqh4_TRfMBcgiO-1">
          <mxGeometry x="448" y="110" width="70" height="90" as="geometry" />
        </mxCell>
        <mxCell id="1UKz5g6THzgxB4cBDnT6-11" style="edgeStyle=orthogonalEdgeStyle;rounded=0;orthogonalLoop=1;jettySize=auto;html=1;" edge="1" parent="5vP34YTqh4_TRfMBcgiO-1">
          <mxGeometry relative="1" as="geometry">
            <mxPoint x="259" y="205" as="targetPoint" />
            <mxPoint x="592" y="266" as="sourcePoint" />
            <Array as="points">
              <mxPoint x="592" y="276" />
              <mxPoint x="592" y="328" />
              <mxPoint x="259" y="328" />
            </Array>
          </mxGeometry>
        </mxCell>
        <mxCell id="1UKz5g6THzgxB4cBDnT6-12" value="Notify job status" style="edgeLabel;html=1;align=center;verticalAlign=middle;resizable=0;points=[];" vertex="1" connectable="0" parent="1UKz5g6THzgxB4cBDnT6-11">
          <mxGeometry x="0.0675" y="-3" relative="1" as="geometry">
            <mxPoint as="offset" />
          </mxGeometry>
        </mxCell>
        <mxCell id="1UKz5g6THzgxB4cBDnT6-13" value="Container" style="outlineConnect=0;fontColor=#232F3E;gradientColor=none;fillColor=#D05C17;strokeColor=none;dashed=0;verticalLabelPosition=bottom;verticalAlign=top;align=center;html=1;fontSize=12;fontStyle=0;aspect=fixed;pointerEvents=1;shape=mxgraph.aws4.container_1;" vertex="1" parent="5vP34YTqh4_TRfMBcgiO-1">
          <mxGeometry x="639" y="129.1" width="80.81" height="51.8" as="geometry" />
        </mxCell>
        <mxCell id="1UKz5g6THzgxB4cBDnT6-14" value="" style="rounded=1;arcSize=10;dashed=1;fillColor=none;gradientColor=none;dashPattern=8 3 1 3;strokeWidth=2;" vertex="1" parent="5vP34YTqh4_TRfMBcgiO-1">
          <mxGeometry x="425" y="72" width="328" height="192" as="geometry" />
        </mxCell>
      </root>
    </mxGraphModel>
  </diagram>
</mxfile>
